NotoSerifDisplay-CondensedItalic.ufo
<glyph name="numbersign" format="2">
  <advance width="447"/>
  <unicode hex="0023"/>
  <outline>
    <contour>
      <point x="60" y="0" type="line"/>
      <point x="69" y="0" type="line"/>
      <point x="132" y="228" type="line"/>
      <point x="280" y="228" type="line"/>
      <point x="217" y="0" type="line"/>
      <point x="226" y="0" type="line"/>
      <point x="289" y="228" type="line"/>
      <point x="387" y="228" type="line"/>
      <point x="389" y="238" type="line"/>
      <point x="292" y="238" type="line"/>
      <point x="361" y="490" type="line"/>
      <point x="458" y="490" type="line"/>
      <point x="460" y="500" type="line"/>
      <point x="364" y="500" type="line"/>
      <point x="423" y="714" type="line"/>
      <point x="413" y="714" type="line"/>
      <point x="354" y="500" type="line"/>
      <point x="207" y="500" type="line"/>
      <point x="266" y="714" type="line"/>
      <point x="256" y="714" type="line"/>
      <point x="197" y="500" type="line"/>
      <point x="100" y="500" type="line"/>
      <point x="98" y="490" type="line"/>
      <point x="195" y="490" type="line"/>
      <point x="125" y="238" type="line"/>
      <point x="28" y="238" type="line"/>
      <point x="26" y="228" type="line"/>
      <point x="123" y="228" type="line"/>
    </contour>
    <contour>
      <point x="135" y="238" type="line"/>
      <point x="204" y="490" type="line"/>
      <point x="352" y="490" type="line"/>
      <point x="282" y="238" type="line"/>
    </contour>
  </outline>
</glyph>
<glyph name="comma" format="2">
  <advance width="195"/>
  <unicode hex="002C"/>
  <outline>
    <contour>
      <point x="-36" y="-146" type="line"/>
      <point x="76" y="-116"/>
      <point x="117" y="-37"/>
      <point x="117" y="43" type="curve" smooth="yes"/>
      <point x="117" y="86"/>
      <point x="97" y="111"/>
      <point x="64" y="111" type="curve" smooth="yes"/>
      <point x="35" y="111"/>
      <point x="19" y="92"/>
      <point x="19" y="65" type="curve" smooth="yes"/>
      <point x="19" y="20"/>
      <point x="64" y="17"/>
      <point x="64" y="-25" type="curve" smooth="yes"/>
      <point x="64" y="-65"/>
      <point x="29" y="-117"/>
      <point x="-36" y="-137" type="curve"/>
    </contour>
  </outline>
</glyph>
<glyph name="two" format="2">
  <advance width="459"/>
  <unicode hex="0032"/>
  <outline>
    <contour>
      <point x="-7" y="0" type="line"/>
      <point x="353" y="0" type="line"/>
      <point x="391" y="177" type="line"/>
      <point x="380" y="177" type="line"/>
      <point x="367" y="126" type="line" smooth="yes"/>
      <point x="353" y="78"/>
      <point x="343" y="71"/>
      <point x="301" y="71" type="curve" smooth="yes"/>
      <point x="32" y="71" type="line"/>
      <point x="278" y="291" type="line" smooth="yes"/>
      <point x="393" y="401"/>
      <point x="447" y="478"/>
      <point x="447" y="577" type="curve" smooth="yes"/>
      <point x="447" y="664"/>
      <point x="390" y="724"/>
      <point x="288" y="724" type="curve" smooth="yes"/>
      <point x="173" y="724"/>
      <point x="117" y="647"/>
      <point x="117" y="582" type="curve" smooth="yes"/>
      <point x="117" y="541"/>
      <point x="143" y="523"/>
      <point x="181" y="523" type="curve"/>
      <point x="191" y="651"/>
      <point x="219" y="714"/>
      <point x="285" y="714" type="curve" smooth="yes"/>
      <point x="337" y="714"/>
      <point x="363" y="681"/>
      <point x="363" y="602" type="curve" smooth="yes"/>
      <point x="363" y="486"/>
      <point x="324" y="383"/>
      <point x="176" y="239" type="curve" smooth="yes"/>
      <point x="6" y="65" type="line"/>
    </contour>
  </outline>
</glyph>
<glyph name="F" format="2">
  <advance width="466"/>
  <unicode hex="0046"/>
  <anchor x="96" y="0" name="bottom"/>
  <anchor x="326" y="714" name="top"/>
  <anchor x="545" y="714" name="topright"/>
  <outline>
    <contour>
      <point x="-28" y="0" type="line"/>
      <point x="230" y="0" type="line"/>
      <point x="233" y="10" type="line"/>
      <point x="189" y="10" type="line" smooth="yes"/>
      <point x="163" y="10"/>
      <point x="146" y="13"/>
      <point x="146" y="34" type="curve" smooth="yes"/>
      <point x="146" y="40"/>
      <point x="147" y="46"/>
      <point x="149" y="58" type="curve" smooth="yes"/>
      <point x="211" y="347" type="line"/>
      <point x="404" y="347" type="line"/>
      <point x="406" y="357" type="line"/>
      <point x="214" y="357" type="line"/>
      <point x="286" y="704" type="line"/>
      <point x="452" y="704" type="line" smooth="yes"/>
      <point x="490" y="704"/>
      <point x="503" y="685"/>
      <point x="503" y="652" type="curve" smooth="yes"/>
      <point x="503" y="633"/>
      <point x="498" y="600"/>
      <point x="493" y="561" type="curve"/>
      <point x="503" y="561" type="line"/>
      <point x="533" y="714" type="line"/>
      <point x="124" y="714" type="line"/>
      <point x="121" y="704" type="line"/>
      <point x="146" y="704" type="line" smooth="yes"/>
      <point x="175" y="704"/>
      <point x="191" y="700"/>
      <point x="191" y="680" type="curve" smooth="yes"/>
      <point x="191" y="671"/>
      <point x="188" y="653"/>
      <point x="184" y="636" type="curve" smooth="yes"/>
      <point x="59" y="54" type="line" smooth="yes"/>
      <point x="51" y="16"/>
      <point x="28" y="10"/>
      <point x="-5" y="10" type="curve" smooth="yes"/>
      <point x="-25" y="10" type="line"/>
    </contour>
  </outline>
</glyph>
<glyph name="K" format="2">
  <advance width="559"/>
  <unicode hex="004B"/>
  <anchor x="220" y="0" name="bottom"/>
  <anchor x="372" y="714" name="top"/>
  <anchor x="635" y="714" name="topright"/>
  <outline>
    <contour>
      <point x="-28" y="0" type="line"/>
      <point x="216" y="0" type="line"/>
      <point x="219" y="10" type="line"/>
      <point x="199" y="10" type="line" smooth="yes"/>
      <point x="168" y="10"/>
      <point x="150" y="17"/>
      <point x="150" y="39" type="curve" smooth="yes"/>
      <point x="150" y="50"/>
      <point x="153" y="65"/>
      <point x="157" y="82" type="curve" smooth="yes"/>
      <point x="203" y="297" type="line"/>
      <point x="277" y="375" type="line"/>
      <point x="264" y="371" type="line"/>
      <point x="339" y="109" type="line" smooth="yes"/>
      <point x="365" y="12"/>
      <point x="389" y="0"/>
      <point x="465" y="0" type="curve" smooth="yes"/>
      <point x="507" y="0" type="line"/>
      <point x="509" y="10" type="line"/>
      <point x="496" y="10" type="line" smooth="yes"/>
      <point x="471" y="10"/>
      <point x="459" y="35"/>
      <point x="437" y="109" type="curve" smooth="yes"/>
      <point x="337" y="445" type="line"/>
      <point x="306" y="403" type="line"/>
      <point x="499" y="609" type="line" smooth="yes"/>
      <point x="575" y="689"/>
      <point x="593" y="704"/>
      <point x="636" y="704" type="curve"/>
      <point x="638" y="714" type="line"/>
      <point x="451" y="714" type="line"/>
      <point x="449" y="704" type="line"/>
      <point x="480" y="704"/>
      <point x="516" y="703"/>
      <point x="516" y="674" type="curve" smooth="yes"/>
      <point x="516" y="652"/>
      <point x="504" y="630"/>
      <point x="466" y="591" type="curve" smooth="yes"/>
      <point x="206" y="316" type="line"/>
      <point x="276" y="649" type="line" smooth="yes"/>
      <point x="287" y="699"/>
      <point x="307" y="704"/>
      <point x="342" y="704" type="curve" smooth="yes"/>
      <point x="362" y="704" type="line"/>
      <point x="364" y="714" type="line"/>
      <point x="123" y="714" type="line"/>
      <point x="121" y="704" type="line"/>
      <point x="143" y="704" type="line" smooth="yes"/>
      <point x="174" y="704"/>
      <point x="191" y="697"/>
      <point x="191" y="676" type="curve" smooth="yes"/>
      <point x="191" y="670"/>
      <point x="190" y="661"/>
      <point x="186" y="647" type="curve" smooth="yes"/>
      <point x="64" y="72" type="line" smooth="yes"/>
      <point x="53" y="19"/>
      <point x="32" y="10"/>
      <point x="-4" y="10" type="curve" smooth="yes"/>
      <point x="-25" y="10" type="line"/>
    </contour>
  </outline>
</glyph>
<glyph name="P" format="2">
  <advance width="500"/>
  <unicode hex="0050"/>
  <anchor x="97" y="0" name="bottom"/>
  <anchor x="341" y="714" name="top"/>
  <anchor x="572" y="714" name="topright"/>
  <outline>
    <contour>
      <point x="-28" y="0" type="line"/>
      <point x="231" y="0" type="line"/>
      <point x="233" y="10" type="line"/>
      <point x="197" y="10" type="line" smooth="yes"/>
      <point x="165" y="10"/>
      <point x="148" y="17"/>
      <point x="148" y="39" type="curve" smooth="yes"/>
      <point x="148" y="46"/>
      <point x="150" y="60"/>
      <point x="153" y="75" type="curve" smooth="yes"/>
      <point x="201" y="293" type="line"/>
      <point x="266" y="293" type="line" smooth="yes"/>
      <point x="462" y="293"/>
      <point x="521" y="430"/>
      <point x="521" y="543" type="curve" smooth="yes"/>
      <point x="521" y="659"/>
      <point x="456" y="714"/>
      <point x="336" y="714" type="curve" smooth="yes"/>
      <point x="123" y="714" type="line"/>
      <point x="121" y="704" type="line"/>
      <point x="140" y="704" type="line" smooth="yes"/>
      <point x="172" y="704"/>
      <point x="190" y="698"/>
      <point x="190" y="675" type="curve" smooth="yes"/>
      <point x="190" y="668"/>
      <point x="189" y="658"/>
      <point x="185" y="644" type="curve" smooth="yes"/>
      <point x="63" y="70" type="line" smooth="yes"/>
      <point x="53" y="20"/>
      <point x="30" y="10"/>
      <point x="-5" y="10" type="curve" smooth="yes"/>
      <point x="-26" y="10" type="line"/>
    </contour>
    <contour>
      <point x="204" y="303" type="line"/>
      <point x="289" y="704" type="line"/>
      <point x="326" y="704" type="line" smooth="yes"/>
      <point x="406" y="704"/>
      <point x="436" y="657"/>
      <point x="436" y="562" type="curve" smooth="yes"/>
      <point x="436" y="435"/>
      <point x="379" y="303"/>
      <point x="244" y="303" type="curve" smooth="yes"/>
    </contour>
  </outline>
</glyph>
<glyph name="g" format="2">
  <advance width="433"/>
  <unicode hex="0067"/>
  <anchor x="99" y="-240" name="bottom"/>
  <anchor x="264" y="536" name="top"/>
  <anchor x="508" y="536" name="topright"/>
  <outline>
    <contour>
      <point x="118" y="-240" type="curve" smooth="yes"/>
      <point x="270" y="-240"/>
      <point x="344" y="-151"/>
      <point x="344" y="-47" type="curve" smooth="yes"/>
      <point x="344" y="37"/>
      <point x="295" y="75"/>
      <point x="215" y="85" type="curve" smooth="yes"/>
      <point x="151" y="93" type="line" smooth="yes"/>
      <point x="112" y="97"/>
      <point x="91" y="108"/>
      <point x="91" y="135" type="curve" smooth="yes"/>
      <point x="91" y="158"/>
      <point x="107" y="176"/>
      <point x="143" y="194" type="curve"/>
      <point x="152" y="192"/>
      <point x="172" y="188"/>
      <point x="201" y="188" type="curve" smooth="yes"/>
      <point x="334" y="188"/>
      <point x="388" y="315"/>
      <point x="388" y="400" type="curve" smooth="yes"/>
      <point x="388" y="455"/>
      <point x="369" y="486"/>
      <point x="358" y="502" type="curve"/>
      <point x="376" y="525"/>
      <point x="391" y="538"/>
      <point x="406" y="538" type="curve" smooth="yes"/>
      <point x="426" y="538"/>
      <point x="435" y="523"/>
      <point x="435" y="480" type="curve"/>
      <point x="463" y="480"/>
      <point x="471" y="504"/>
      <point x="471" y="528" type="curve" smooth="yes"/>
      <point x="471" y="552"/>
      <point x="458" y="572"/>
      <point x="430" y="572" type="curve" smooth="yes"/>
      <point x="396" y="572"/>
      <point x="373" y="540"/>
      <point x="351" y="509" type="curve"/>
      <point x="325" y="536"/>
      <point x="297" y="546"/>
      <point x="258" y="546" type="curve" smooth="yes"/>
      <point x="126" y="546"/>
      <point x="65" y="420"/>
      <point x="65" y="323" type="curve" smooth="yes"/>
      <point x="65" y="264"/>
      <point x="87" y="222"/>
      <point x="133" y="199" type="curve"/>
      <point x="60" y="173"/>
      <point x="38" y="139"/>
      <point x="38" y="101" type="curve" smooth="yes"/>
      <point x="38" y="70"/>
      <point x="53" y="44"/>
      <point x="91" y="28" type="curve"/>
      <point x="-3" y="19"/>
      <point x="-63" y="-31"/>
      <point x="-63" y="-114" type="curve" smooth="yes"/>
      <point x="-63" y="-196"/>
      <point x="-4" y="-240"/>
    </contour>
    <contour>
      <point x="125" y="-230" type="curve" smooth="yes"/>
      <point x="39" y="-230"/>
      <point x="6" y="-179"/>
      <point x="6" y="-114" type="curve" smooth="yes"/>
      <point x="6" y="-46"/>
      <point x="42" y="3"/>
      <point x="104" y="24" type="curve"/>
      <point x="180" y="12" type="line" smooth="yes"/>
      <point x="238" y="3"/>
      <point x="273" y="-27"/>
      <point x="273" y="-89" type="curve" smooth="yes"/>
      <point x="273" y="-160"/>
      <point x="229" y="-230"/>
    </contour>
    <contour>
      <point x="202" y="198" type="curve" smooth="yes"/>
      <point x="156" y="198"/>
      <point x="140" y="236"/>
      <point x="140" y="307" type="curve" smooth="yes"/>
      <point x="140" y="410"/>
      <point x="174" y="536"/>
      <point x="253" y="536" type="curve" smooth="yes"/>
      <point x="290" y="536"/>
      <point x="311" y="511"/>
      <point x="311" y="438" type="curve" smooth="yes"/>
      <point x="311" y="309"/>
      <point x="275" y="198"/>
    </contour>
  </outline>
</glyph>
<glyph name="i" format="2">
  <advance width="258"/>
  <unicode hex="0069"/>
  <anchor x="79" y="0" name="bottom"/>
  <anchor x="239" y="755" name="top"/>
  <anchor x="344" y="755" name="topright"/>
  <outline>
    <contour>
      <point x="136" y="-10" type="curve" smooth="yes"/>
      <point x="183" y="-10"/>
      <point x="209" y="13"/>
      <point x="236" y="45" type="curve"/>
      <point x="229" y="53" type="line"/>
      <point x="208" y="28"/>
      <point x="186" y="8"/>
      <point x="166" y="8" type="curve" smooth="yes"/>
      <point x="143" y="8"/>
      <point x="137" y="28"/>
      <point x="137" y="58" type="curve" smooth="yes"/>
      <point x="137" y="76"/>
      <point x="139" y="102"/>
      <point x="148" y="142" type="curve" smooth="yes"/>
      <point x="232" y="536" type="line"/>
      <point x="72" y="536" type="line"/>
      <point x="70" y="526" type="line"/>
      <point x="82" y="526" type="line" smooth="yes"/>
      <point x="121" y="526"/>
      <point x="131" y="517"/>
      <point x="131" y="497" type="curve" smooth="yes"/>
      <point x="131" y="485"/>
      <point x="129" y="471"/>
      <point x="125" y="456" type="curve" smooth="yes"/>
      <point x="71" y="194" type="line" smooth="yes"/>
      <point x="60" y="145"/>
      <point x="54" y="106"/>
      <point x="54" y="79" type="curve" smooth="yes"/>
      <point x="54" y="20"/>
      <point x="82" y="-10"/>
    </contour>
    <contour>
      <point x="200" y="656" type="curve" smooth="yes"/>
      <point x="233" y="656"/>
      <point x="261" y="676"/>
      <point x="261" y="713" type="curve" smooth="yes"/>
      <point x="261" y="743"/>
      <point x="239" y="755"/>
      <point x="214" y="755" type="curve" smooth="yes"/>
      <point x="182" y="755"/>
      <point x="154" y="736"/>
      <point x="154" y="698" type="curve" smooth="yes"/>
      <point x="154" y="669"/>
      <point x="175" y="656"/>
    </contour>
  </outline>
</glyph>
<glyph name="p" format="2">
  <advance width="480"/>
  <unicode hex="0070"/>
  <anchor x="44" y="-240" name="bottom"/>
  <anchor x="313" y="536" name="top"/>
  <anchor x="510" y="536" name="topright"/>
  <outline>
    <contour>
      <point x="-21" y="-240" type="line"/>
      <point x="147" y="-240" type="line"/>
      <point x="149" y="-230" type="line"/>
      <point x="129" y="-230" type="line" smooth="yes"/>
      <point x="92" y="-230"/>
      <point x="78" y="-226"/>
      <point x="78" y="-203" type="curve" smooth="yes"/>
      <point x="78" y="-195"/>
      <point x="79" y="-185"/>
      <point x="83" y="-167" type="curve" smooth="yes"/>
      <point x="109" y="-40" type="line" smooth="yes"/>
      <point x="112" y="-23"/>
      <point x="115" y="-8"/>
      <point x="120" y="16" type="curve"/>
      <point x="144" y="-2"/>
      <point x="162" y="-10"/>
      <point x="197" y="-10" type="curve" smooth="yes"/>
      <point x="369" y="-10"/>
      <point x="453" y="229"/>
      <point x="453" y="385" type="curve" smooth="yes"/>
      <point x="453" y="493"/>
      <point x="418" y="546"/>
      <point x="354" y="546" type="curve" smooth="yes"/>
      <point x="279" y="546"/>
      <point x="232" y="479"/>
      <point x="197" y="389" type="curve"/>
      <point x="194" y="389" type="line"/>
      <point x="223" y="536" type="line"/>
      <point x="73" y="536" type="line"/>
      <point x="70" y="526" type="line"/>
      <point x="87" y="526" type="line" smooth="yes"/>
      <point x="123" y="526"/>
      <point x="133" y="520"/>
      <point x="133" y="495" type="curve" smooth="yes"/>
      <point x="133" y="484"/>
      <point x="129" y="464"/>
      <point x="124" y="438" type="curve" smooth="yes"/>
    </contour>
    <contour>
      <point x="184" y="2" type="curve" smooth="yes"/>
      <point x="156" y="2"/>
      <point x="133" y="15"/>
      <point x="123" y="28" type="curve"/>
      <point x="184" y="313" type="line" smooth="yes"/>
      <point x="204" y="404"/>
      <point x="258" y="519"/>
      <point x="319" y="519" type="curve" smooth="yes"/>
      <point x="352" y="519"/>
      <point x="371" y="493"/>
      <point x="371" y="413" type="curve" smooth="yes"/>
      <point x="371" y="251"/>
      <point x="298" y="2"/>
    </contour>
  </outline>
</glyph>
<glyph name="x" format="2">
  <advance width="442"/>
  <unicode hex="0078"/>
  <anchor x="164" y="0" name="bottom"/>
  <anchor x="278" y="536" name="top"/>
  <anchor x="480" y="536" name="topright"/>
  <outline>
    <contour>
      <point x="-22" y="0" type="line"/>
      <point x="46" y="0" type="line"/>
      <point x="193" y="241" type="line"/>
      <point x="260" y="0" type="line"/>
      <point x="385" y="0" type="line"/>
      <point x="387" y="10" type="line"/>
      <point x="380" y="10" type="line" smooth="yes"/>
      <point x="355" y="10"/>
      <point x="349" y="15"/>
      <point x="334" y="64" type="curve" smooth="yes"/>
      <point x="261" y="308" type="line"/>
      <point x="356" y="470" type="line" smooth="yes"/>
      <point x="388" y="521"/>
      <point x="407" y="526"/>
      <point x="442" y="526" type="curve" smooth="yes"/>
      <point x="456" y="526" type="line"/>
      <point x="458" y="536" type="line"/>
      <point x="386" y="536" type="line"/>
      <point x="257" y="319" type="line"/>
      <point x="194" y="536" type="line"/>
      <point x="77" y="536" type="line"/>
      <point x="75" y="526" type="line"/>
      <point x="85" y="526" type="line" smooth="yes"/>
      <point x="108" y="526"/>
      <point x="111" y="519"/>
      <point x="123" y="479" type="curve" smooth="yes"/>
      <point x="189" y="253" type="line"/>
      <point x="72" y="62" type="line" smooth="yes"/>
      <point x="45" y="18"/>
      <point x="30" y="10"/>
      <point x="-9" y="10" type="curve" smooth="yes"/>
      <point x="-20" y="10" type="line"/>
    </contour>
  </outline>
</glyph>
<glyph name="yen" format="2">
  <advance width="461"/>
  <unicode hex="00A5"/>
  <outline>
    <contour>
      <point x="53" y="0" type="line"/>
      <point x="303" y="0" type="line"/>
      <point x="304" y="10" type="line"/>
      <point x="283" y="10" type="line" smooth="yes"/>
      <point x="252" y="10"/>
      <point x="236" y="16"/>
      <point x="236" y="37" type="curve" smooth="yes"/>
      <point x="236" y="49"/>
      <point x="238" y="58"/>
      <point x="242" y="75" type="curve" smooth="yes"/>
      <point x="266" y="201" type="line"/>
      <point x="374" y="201" type="line"/>
      <point x="376" y="211" type="line"/>
      <point x="268" y="211" type="line"/>
      <point x="289" y="321" type="line"/>
      <point x="400" y="321" type="line"/>
      <point x="402" y="330" type="line"/>
      <point x="292" y="330" type="line"/>
      <point x="467" y="641" type="line" smooth="yes"/>
      <point x="495" y="692"/>
      <point x="511" y="704"/>
      <point x="542" y="704" type="curve" smooth="yes"/>
      <point x="559" y="704" type="line"/>
      <point x="562" y="714" type="line"/>
      <point x="386" y="714" type="line"/>
      <point x="384" y="704" type="line"/>
      <point x="425" y="704" type="line" smooth="yes"/>
      <point x="457" y="704"/>
      <point x="467" y="696"/>
      <point x="467" y="678" type="curve" smooth="yes"/>
      <point x="467" y="665"/>
      <point x="457" y="645"/>
      <point x="443" y="621" type="curve" smooth="yes"/>
      <point x="333" y="424" type="line" smooth="yes"/>
      <point x="311" y="387"/>
      <point x="296" y="359"/>
      <point x="284" y="338" type="curve"/>
      <point x="280" y="367"/>
      <point x="267" y="432"/>
      <point x="259" y="471" type="curve" smooth="yes"/>
      <point x="231" y="624" type="line" smooth="yes"/>
      <point x="226" y="651"/>
      <point x="222" y="668"/>
      <point x="222" y="680" type="curve" smooth="yes"/>
      <point x="222" y="696"/>
      <point x="230" y="704"/>
      <point x="253" y="704" type="curve" smooth="yes"/>
      <point x="296" y="704" type="line"/>
      <point x="298" y="714" type="line"/>
      <point x="103" y="714" type="line"/>
      <point x="101" y="704" type="line"/>
      <point x="110" y="704" type="line" smooth="yes"/>
      <point x="133" y="704"/>
      <point x="136" y="697"/>
      <point x="143" y="659" type="curve" smooth="yes"/>
      <point x="206" y="330" type="line"/>
      <point x="91" y="330" type="line"/>
      <point x="88" y="321" type="line"/>
      <point x="205" y="321" type="line"/>
      <point x="183" y="211" type="line"/>
      <point x="65" y="211" type="line"/>
      <point x="63" y="201" type="line"/>
      <point x="181" y="201" type="line"/>
      <point x="154" y="67" type="line" smooth="yes"/>
      <point x="146" y="22"/>
      <point x="124" y="10"/>
      <point x="88" y="10" type="curve" smooth="yes"/>
      <point x="55" y="10" type="line"/>
    </contour>
  </outline>
</glyph>
<glyph name="paragraph" format="2">
  <advance width="530"/>
  <unicode hex="00B6"/>
  <outline>
    <contour>
      <point x="174" y="-111" type="line"/>
      <point x="307" y="-111" type="line"/>
      <point x="307" y="750" type="line"/>
      <point x="385" y="750" type="line"/>
      <point x="385" y="-111" type="line"/>
      <point x="518" y="-111" type="line"/>
      <point x="518" y="-101" type="line"/>
      <point x="506" y="-101" type="line" smooth="yes"/>
      <point x="460" y="-101"/>
      <point x="436" y="-96"/>
      <point x="436" y="-41" type="curve" smooth="yes"/>
      <point x="436" y="683" type="line" smooth="yes"/>
      <point x="436" y="741"/>
      <point x="457" y="750"/>
      <point x="506" y="750" type="curve" smooth="yes"/>
      <point x="518" y="750" type="line"/>
      <point x="518" y="760" type="line"/>
      <point x="213" y="760" type="line" smooth="yes"/>
      <point x="100" y="760"/>
      <point x="63" y="684"/>
      <point x="63" y="577" type="curve" smooth="yes"/>
      <point x="63" y="473"/>
      <point x="94" y="386"/>
      <point x="211" y="386" type="curve" smooth="yes"/>
      <point x="256" y="386" type="line"/>
      <point x="256" y="-45" type="line" smooth="yes"/>
      <point x="256" y="-96"/>
      <point x="232" y="-101"/>
      <point x="189" y="-101" type="curve" smooth="yes"/>
      <point x="174" y="-101" type="line"/>
    </contour>
  </outline>
</glyph>
<glyph name="hbar" format="2">
  <advance width="474"/>
  <unicode hex="0127"/>
  <anchor x="184" y="0" name="bottom"/>
  <anchor x="346" y="760" name="top"/>
  <anchor x="297" y="268" name="center"/>
  <anchor x="489" y="760" name="topright"/>
  <outline>
    <contour>
      <point x="74" y="623" type="line"/>
      <point x="355" y="623" type="line"/>
      <point x="357" y="633" type="line"/>
      <point x="76" y="633" type="line"/>
    </contour>
    <component base="h" xOffset="-10"/>
  </outline>
</glyph>
<glyph name="eng" format="2">
  <advance width="479"/>
  <unicode hex="014B"/>
  <anchor x="123" y="-240" name="bottom"/>
  <anchor x="288" y="536" name="top"/>
  <anchor x="528" y="536" name="topright"/>
  <outline>
    <contour>
      <point x="167" y="-240" type="curve" smooth="yes"/>
      <point x="257" y="-240"/>
      <point x="310" y="-178"/>
      <point x="347" y="-3" type="curve" smooth="yes"/>
      <point x="417" y="321" type="line" smooth="yes"/>
      <point x="426" y="364"/>
      <point x="435" y="410"/>
      <point x="435" y="444" type="curve" smooth="yes"/>
      <point x="435" y="497"/>
      <point x="412" y="544"/>
      <point x="346" y="544" type="curve" smooth="yes"/>
      <point x="283" y="544"/>
      <point x="236" y="504"/>
      <point x="192" y="392" type="curve"/>
      <point x="190" y="392" type="line"/>
      <point x="217" y="536" type="line"/>
      <point x="73" y="536" type="line"/>
      <point x="72" y="526" type="line"/>
      <point x="84" y="526" type="line" smooth="yes"/>
      <point x="118" y="526"/>
      <point x="124" y="515"/>
      <point x="124" y="492" type="curve" smooth="yes"/>
      <point x="124" y="481"/>
      <point x="121" y="464"/>
      <point x="117" y="444" type="curve" smooth="yes"/>
      <point x="23" y="0" type="line"/>
      <point x="110" y="0" type="line"/>
      <point x="174" y="299" type="line" smooth="yes"/>
      <point x="196" y="403"/>
      <point x="252" y="519"/>
      <point x="312" y="519" type="curve" smooth="yes"/>
      <point x="346" y="519"/>
      <point x="350" y="482"/>
      <point x="350" y="456" type="curve" smooth="yes"/>
      <point x="350" y="421"/>
      <point x="338" y="368"/>
      <point x="333" y="343" type="curve" smooth="yes"/>
      <point x="253" y="-32" type="line" smooth="yes"/>
      <point x="224" y="-167"/>
      <point x="200" y="-227"/>
      <point x="147" y="-227" type="curve" smooth="yes"/>
      <point x="132" y="-227"/>
      <point x="109" y="-222"/>
      <point x="99" y="-217" type="curve"/>
      <point x="96" y="-227" type="line"/>
      <point x="120" y="-236"/>
      <point x="138" y="-240"/>
    </contour>
  </outline>
</glyph>
<glyph name="uni0248" format="2">
  <advance width="282"/>
  <unicode hex="0248"/>
  <anchor x="24" y="-240" name="bottom"/>
  <anchor x="227" y="714" name="top"/>
  <anchor x="348" y="714" name="topright"/>
  <outline>
    <contour>
      <point x="28" y="370" type="line"/>
      <point x="302" y="370" type="line"/>
      <point x="304" y="380" type="line"/>
      <point x="30" y="380" type="line"/>
    </contour>
    <component base="J" xOffset="-14"/>
  </outline>
</glyph>
<glyph name="schwahook" format="2">
  <advance width="604"/>
  <unicode hex="025A"/>
  <anchor x="191" y="0" name="bottom"/>
  <anchor x="291" y="536" name="top"/>
  <outline>
    <contour>
      <point x="131" y="-10" type="curve" smooth="yes"/>
      <point x="285" y="-10"/>
      <point x="377" y="144"/>
      <point x="385" y="322" type="curve"/>
      <point x="428" y="333" type="line"/>
      <point x="443" y="271" type="line" smooth="yes"/>
      <point x="457" y="213"/>
      <point x="480" y="178"/>
      <point x="529" y="178" type="curve" smooth="yes"/>
      <point x="564" y="178"/>
      <point x="590" y="202"/>
      <point x="590" y="234" type="curve" smooth="yes"/>
      <point x="590" y="256"/>
      <point x="579" y="270"/>
      <point x="564" y="277" type="curve"/>
      <point x="558" y="251"/>
      <point x="541" y="230"/>
      <point x="512" y="230" type="curve" smooth="yes"/>
      <point x="477" y="230"/>
      <point x="456" y="256"/>
      <point x="444" y="305" type="curve" smooth="yes"/>
      <point x="435" y="343" type="line"/>
      <point x="385" y="330" type="line"/>
      <point x="381" y="474"/>
      <point x="331" y="546"/>
      <point x="227" y="546" type="curve" smooth="yes"/>
      <point x="134" y="546"/>
      <point x="87" y="478"/>
      <point x="87" y="434" type="curve" smooth="yes"/>
      <point x="87" y="417"/>
      <point x="95" y="410"/>
      <point x="102" y="409" type="curve"/>
      <point x="124" y="477"/>
      <point x="160" y="535"/>
      <point x="215" y="535" type="curve" smooth="yes"/>
      <point x="273" y="535"/>
      <point x="299" y="470"/>
      <point x="299" y="349" type="curve" smooth="yes"/>
      <point x="299" y="335"/>
      <point x="299" y="322"/>
      <point x="298" y="308" type="curve"/>
      <point x="86" y="241"/>
      <point x="23" y="182"/>
      <point x="23" y="95" type="curve" smooth="yes"/>
      <point x="23" y="24"/>
      <point x="63" y="-10"/>
    </contour>
    <contour>
      <point x="150" y="2" type="curve" smooth="yes"/>
      <point x="121" y="2"/>
      <point x="101" y="27"/>
      <point x="101" y="80" type="curve" smooth="yes"/>
      <point x="101" y="185"/>
      <point x="155" y="247"/>
      <point x="298" y="298" type="curve"/>
      <point x="289" y="167"/>
      <point x="227" y="2"/>
    </contour>
  </outline>
</glyph>
<glyph name="uni0268" format="2">
  <advance width="272"/>
  <unicode hex="0268"/>
  <anchor x="83" y="0" name="bottom"/>
  <anchor x="243" y="755" name="top"/>
  <anchor x="358" y="755" name="topright"/>
  <outline>
    <contour>
      <point x="18" y="280" type="line"/>
      <point x="261" y="280" type="line"/>
      <point x="264" y="290" type="line"/>
      <point x="20" y="290" type="line"/>
    </contour>
    <component base="i" xOffset="14"/>
  </outline>
</glyph>
<glyph name="uni02D1" format="2">
  <advance width="248"/>
  <unicode hex="02D1"/>
  <outline>
    <contour>
      <point x="158" y="429" type="line"/>
      <point x="234" y="536" type="line"/>
      <point x="125" y="536" type="line"/>
    </contour>
  </outline>
</glyph>
<glyph name="tilde" format="2">
  <advance width="354"/>
  <unicode hex="02DC"/>
  <outline>
    <contour>
      <point x="320" y="618" type="curve" smooth="yes"/>
      <point x="374" y="618"/>
      <point x="400" y="672"/>
      <point x="412" y="730" type="curve"/>
      <point x="400" y="730" type="line"/>
      <point x="391" y="696"/>
      <point x="374" y="671"/>
      <point x="344" y="671" type="curve" smooth="yes"/>
      <point x="298" y="671"/>
      <point x="266" y="730"/>
      <point x="211" y="730" type="curve" smooth="yes"/>
      <point x="156" y="730"/>
      <point x="126" y="672"/>
      <point x="114" y="616" type="curve"/>
      <point x="126" y="616" type="line"/>
      <point x="134" y="642"/>
      <point x="151" y="677"/>
      <point x="186" y="677" type="curve" smooth="yes"/>
      <point x="231" y="677"/>
      <point x="263" y="618"/>
    </contour>
  </outline>
</glyph>
<glyph name="breveinvertedcomb" format="2">
  <unicode hex="0311"/>
  <anchor x="57" y="536" name="_top"/>
  <anchor x="101" y="739" name="top"/>
  <outline>
    <contour>
      <point x="-52" y="606" type="curve"/>
      <point x="-42" y="606" type="line"/>
      <point x="-22" y="652"/>
      <point x="11" y="685"/>
      <point x="75" y="685" type="curve" smooth="yes"/>
      <point x="137" y="685"/>
      <point x="170" y="654"/>
      <point x="173" y="606" type="curve"/>
      <point x="183" y="606" type="line"/>
      <point x="187" y="688"/>
      <point x="156" y="743"/>
      <point x="83" y="743" type="curve" smooth="yes"/>
      <point x="11" y="743"/>
      <point x="-33" y="682"/>
    </contour>
  </outline>
</glyph>
<glyph name="leftangleabovecomb" format="2">
  <unicode hex="031A"/>
  <anchor x="195" y="623" name="_topright"/>
  <outline>
    <contour>
      <point x="151" y="663" type="line"/>
      <point x="171" y="663" type="line"/>
      <point x="208" y="838" type="line"/>
      <point x="36" y="838" type="line"/>
      <point x="32" y="818" type="line"/>
      <point x="184" y="818" type="line"/>
    </contour>
  </outline>
</glyph>
<glyph name="dieresistonos" format="2">
  <advance width="462"/>
  <unicode hex="0385"/>
  <anchor x="279" y="536" name="_top"/>
  <outline>
    <contour>
      <point x="288" y="652" type="line"/>
      <point x="302" y="652" type="line"/>
      <point x="345" y="704"/>
      <point x="386" y="756"/>
      <point x="421" y="811" type="curve"/>
      <point x="424" y="822" type="line"/>
      <point x="352" y="822" type="line"/>
      <point x="334" y="767"/>
      <point x="315" y="710"/>
      <point x="289" y="659" type="curve"/>
    </contour>
    <contour>
      <point x="222" y="602" type="curve" smooth="yes"/>
      <point x="246" y="602"/>
      <point x="266" y="629"/>
      <point x="266" y="670" type="curve" smooth="yes"/>
      <point x="266" y="697"/>
      <point x="253" y="708"/>
      <point x="234" y="708" type="curve" smooth="yes"/>
      <point x="205" y="708"/>
      <point x="190" y="673"/>
      <point x="190" y="641" type="curve" smooth="yes"/>
      <point x="190" y="612"/>
      <point x="203" y="602"/>
    </contour>
    <contour>
      <point x="397" y="602" type="curve" smooth="yes"/>
      <point x="422" y="602"/>
      <point x="441" y="629"/>
      <point x="441" y="669" type="curve" smooth="yes"/>
      <point x="441" y="697"/>
      <point x="429" y="708"/>
      <point x="409" y="708" type="curve" smooth="yes"/>
      <point x="380" y="708"/>
      <point x="365" y="673"/>
      <point x="365" y="641" type="curve" smooth="yes"/>
      <point x="365" y="612"/>
      <point x="378" y="602"/>
    </contour>
  </outline>
</glyph>
<glyph name="theta" format="2">
  <advance width="469"/>
  <unicode hex="03B8"/>
  <anchor x="172" y="0" name="bottom"/>
  <anchor x="331" y="764" name="top"/>
  <anchor x="541" y="764" name="topright"/>
  <outline>
    <contour>
      <point x="196" y="-10" type="curve" smooth="yes"/>
      <point x="387" y="-10"/>
      <point x="462" y="337"/>
      <point x="462" y="533" type="curve" smooth="yes"/>
      <point x="462" y="691"/>
      <point x="406" y="766"/>
      <point x="319" y="766" type="curve" smooth="yes"/>
      <point x="134" y="766"/>
      <point x="52" y="439"/>
      <point x="52" y="242" type="curve" smooth="yes"/>
      <point x="52" y="102"/>
      <point x="100" y="-10"/>
    </contour>
    <contour>
      <point x="198" y="0" type="curve"/>
      <point x="161" y="0"/>
      <point x="133" y="42"/>
      <point x="133" y="165" type="curve" smooth="yes"/>
      <point x="133" y="427"/>
      <point x="216" y="756"/>
      <point x="321" y="756" type="curve" smooth="yes"/>
      <point x="360" y="756"/>
      <point x="384" y="709"/>
      <point x="384" y="592" type="curve" smooth="yes"/>
      <point x="384" y="340"/>
      <point x="299" y="0"/>
    </contour>
    <contour>
      <point x="101" y="382" type="line"/>
      <point x="415" y="382" type="line"/>
      <point x="416" y="392" type="line"/>
      <point x="102" y="392" type="line"/>
    </contour>
  </outline>
</glyph>
<glyph name="nu" format="2">
  <advance width="456"/>
  <unicode hex="03BD"/>
  <anchor x="168" y="0" name="bottom"/>
  <anchor x="282" y="536" name="top"/>
  <outline>
    <contour>
      <point x="137" y="0" type="curve"/>
      <point x="192" y="0" type="line"/>
      <point x="323" y="137"/>
      <point x="446" y="356"/>
      <point x="446" y="480" type="curve" smooth="yes"/>
      <point x="446" y="522"/>
      <point x="430" y="546"/>
      <point x="403" y="546" type="curve" smooth="yes"/>
      <point x="379" y="546"/>
      <point x="362" y="528"/>
      <point x="358" y="496" type="curve"/>
      <point x="377" y="496"/>
      <point x="393" y="478"/>
      <point x="393" y="424" type="curve" smooth="yes"/>
      <point x="393" y="304"/>
      <point x="315" y="158"/>
      <point x="209" y="31" type="curve"/>
      <point x="200" y="444"/>
      <point x="194" y="545"/>
      <point x="126" y="545" type="curve" smooth="yes"/>
      <point x="87" y="545"/>
      <point x="54" y="520"/>
      <point x="30" y="498" type="curve"/>
      <point x="35" y="492" type="line"/>
      <point x="40" y="496"/>
      <point x="56" y="513"/>
      <point x="72" y="513" type="curve" smooth="yes"/>
      <point x="122" y="513"/>
      <point x="125" y="370"/>
    </contour>
  </outline>
</glyph>
<glyph name="xi" format="2">
  <advance width="397"/>
  <unicode hex="03BE"/>
  <anchor x="95" y="-191" name="bottom"/>
  <anchor x="300" y="772" name="top"/>
  <outline>
    <contour>
      <point x="163" y="-188" type="line"/>
      <point x="261" y="-153"/>
      <point x="318" y="-101"/>
      <point x="318" y="-26" type="curve" smooth="yes"/>
      <point x="318" y="40"/>
      <point x="282" y="56"/>
      <point x="208" y="80" type="curve" smooth="yes"/>
      <point x="142" y="102"/>
      <point x="113" y="119"/>
      <point x="113" y="181" type="curve" smooth="yes"/>
      <point x="113" y="291"/>
      <point x="201" y="395"/>
      <point x="272" y="428" type="curve"/>
      <point x="289" y="419"/>
      <point x="307" y="411"/>
      <point x="335" y="411" type="curve" smooth="yes"/>
      <point x="370" y="411"/>
      <point x="388" y="424"/>
      <point x="388" y="447" type="curve" smooth="yes"/>
      <point x="388" y="467"/>
      <point x="374" y="476"/>
      <point x="355" y="476" type="curve" smooth="yes"/>
      <point x="332" y="476"/>
      <point x="299" y="463"/>
      <point x="272" y="442" type="curve"/>
      <point x="225" y="460"/>
      <point x="205" y="497"/>
      <point x="205" y="541" type="curve" smooth="yes"/>
      <point x="205" y="609"/>
      <point x="241" y="656"/>
      <point x="307" y="693" type="curve"/>
      <point x="324" y="687"/>
      <point x="346" y="679"/>
      <point x="369" y="681" type="curve" smooth="yes"/>
      <point x="402" y="683"/>
      <point x="438" y="700"/>
      <point x="438" y="725" type="curve" smooth="yes"/>
      <point x="438" y="741"/>
      <point x="427" y="752"/>
      <point x="405" y="752" type="curve" smooth="yes"/>
      <point x="372" y="752"/>
      <point x="332" y="730"/>
      <point x="304" y="706" type="curve"/>
      <point x="254" y="711"/>
      <point x="186" y="745"/>
      <point x="158" y="776" type="curve"/>
      <point x="150" y="769" type="line"/>
      <point x="179" y="737"/>
      <point x="247" y="704"/>
      <point x="293" y="697" type="curve"/>
      <point x="220" y="673"/>
      <point x="126" y="621"/>
      <point x="126" y="541" type="curve" smooth="yes"/>
      <point x="126" y="479"/>
      <point x="177" y="446"/>
      <point x="257" y="436" type="curve"/>
      <point x="257" y="433" type="line"/>
      <point x="122" y="381"/>
      <point x="26" y="259"/>
      <point x="26" y="144" type="curve" smooth="yes"/>
      <point x="26" y="57"/>
      <point x="84" y="29"/>
      <point x="154" y="8" type="curve" smooth="yes"/>
      <point x="226" y="-13"/>
      <point x="252" y="-26"/>
      <point x="252" y="-73" type="curve" smooth="yes"/>
      <point x="252" y="-109"/>
      <point x="231" y="-145"/>
      <point x="159" y="-178" type="curve"/>
    </contour>
  </outline>
</glyph>
<glyph name="psi" format="2">
  <advance width="547"/>
  <unicode hex="03C8"/>
  <anchor x="177" y="-240" name="bottom"/>
  <anchor x="390" y="760" name="top"/>
  <outline>
    <contour>
      <point x="162" y="-240" type="line"/>
      <point x="199" y="-240" type="line"/>
      <point x="248" y="-9" type="line"/>
      <point x="423" y="1"/>
      <point x="513" y="233"/>
      <point x="513" y="420" type="curve" smooth="yes"/>
      <point x="513" y="493"/>
      <point x="497" y="546"/>
      <point x="457" y="546" type="curve" smooth="yes"/>
      <point x="431" y="546"/>
      <point x="418" y="526"/>
      <point x="414" y="500" type="curve"/>
      <point x="448" y="491"/>
      <point x="472" y="461"/>
      <point x="472" y="379" type="curve" smooth="yes"/>
      <point x="472" y="198"/>
      <point x="401" y="11"/>
      <point x="250" y="2" type="curve"/>
      <point x="411" y="760" type="line"/>
      <point x="374" y="760" type="line"/>
      <point x="213" y="3" type="line"/>
      <point x="165" y="8"/>
      <point x="131" y="37"/>
      <point x="131" y="112" type="curve" smooth="yes"/>
      <point x="131" y="151"/>
      <point x="144" y="213"/>
      <point x="157" y="272" type="curve" smooth="yes"/>
      <point x="215" y="536" type="line"/>
      <point x="70" y="536" type="line"/>
      <point x="67" y="526" type="line"/>
      <point x="82" y="526" type="line" smooth="yes"/>
      <point x="110" y="526"/>
      <point x="120" y="517"/>
      <point x="120" y="494" type="curve" smooth="yes"/>
      <point x="120" y="478"/>
      <point x="116" y="456"/>
      <point x="108" y="422" type="curve" smooth="yes"/>
      <point x="80" y="296" type="line" smooth="yes"/>
      <point x="66" y="232"/>
      <point x="56" y="187"/>
      <point x="56" y="140" type="curve" smooth="yes"/>
      <point x="56" y="42"/>
      <point x="115" y="-6"/>
      <point x="211" y="-10" type="curve"/>
    </contour>
  </outline>
</glyph>
<glyph name="dasiapneumatacomb-cy" format="2">
  <unicode hex="0485"/>
  <anchor x="62" y="536" name="_top"/>
  <anchor x="96" y="776" name="top"/>
  <outline>
    <contour>
      <point x="118" y="603" type="curve"/>
      <point x="120" y="613" type="line"/>
      <point x="90" y="624"/>
      <point x="72" y="643"/>
      <point x="72" y="672" type="curve" smooth="yes"/>
      <point x="72" y="717"/>
      <point x="139" y="700"/>
      <point x="139" y="750" type="curve" smooth="yes"/>
      <point x="139" y="767"/>
      <point x="128" y="777"/>
      <point x="108" y="777" type="curve" smooth="yes"/>
      <point x="70" y="777"/>
      <point x="45" y="729"/>
      <point x="45" y="688" type="curve" smooth="yes"/>
      <point x="45" y="647"/>
      <point x="69" y="620"/>
    </contour>
  </outline>
</glyph>
<glyph name="uni1D24" format="2">
  <advance width="410"/>
  <unicode hex="1D24"/>
  <anchor x="157" y="0" name="bottom"/>
  <anchor x="330" y="760" name="top"/>
  <outline>
    <contour>
      <point x="157" y="-15" type="curve" smooth="yes"/>
      <point x="254" y="-15"/>
      <point x="321" y="43"/>
      <point x="321" y="124" type="curve" smooth="yes"/>
      <point x="321" y="159"/>
      <point x="299" y="177"/>
      <point x="259" y="177" type="curve"/>
      <point x="243" y="50"/>
      <point x="212" y="-5"/>
      <point x="155" y="-5" type="curve" smooth="yes"/>
      <point x="104" y="-5"/>
      <point x="78" y="28"/>
      <point x="78" y="99" type="curve" smooth="yes"/>
      <point x="78" y="224"/>
      <point x="143" y="306"/>
      <point x="274" y="344" type="curve"/>
      <point x="290" y="422" type="line"/>
      <point x="415" y="460"/>
      <point x="483" y="533"/>
      <point x="483" y="630" type="curve" smooth="yes"/>
      <point x="483" y="720"/>
      <point x="427" y="771"/>
      <point x="326" y="771" type="curve" smooth="yes"/>
      <point x="229" y="771"/>
      <point x="163" y="714"/>
      <point x="163" y="633" type="curve" smooth="yes"/>
      <point x="163" y="598"/>
      <point x="184" y="580"/>
      <point x="224" y="580" type="curve"/>
      <point x="240" y="706"/>
      <point x="272" y="761"/>
      <point x="328" y="761" type="curve" smooth="yes"/>
      <point x="380" y="761"/>
      <point x="405" y="728"/>
      <point x="405" y="658" type="curve" smooth="yes"/>
      <point x="405" y="533"/>
      <point x="340" y="451"/>
      <point x="209" y="413" type="curve"/>
      <point x="193" y="335" type="line"/>
      <point x="69" y="297"/>
      <point x="0" y="223"/>
      <point x="0" y="127" type="curve" smooth="yes"/>
      <point x="0" y="36"/>
      <point x="56" y="-15"/>
    </contour>
  </outline>
</glyph>
<glyph name="uni1D7C" format="2">
  <advance width="270"/>
  <unicode hex="1D7C"/>
  <anchor x="103" y="0" name="bottom"/>
  <anchor x="183" y="536" name="top"/>
  <outline>
    <contour>
      <point x="16" y="280" type="line"/>
      <point x="253" y="280" type="line"/>
      <point x="255" y="290" type="line"/>
      <point x="18" y="290" type="line"/>
    </contour>
    <component base="iota" xOffset="7"/>
  </outline>
</glyph>
<glyph name="Germandbls" format="2">
  <advance width="581"/>
  <unicode hex="1E9E"/>
  <anchor x="222" y="0" name="bottom"/>
  <anchor x="374" y="714" name="top"/>
  <outline>
    <contour>
      <point x="324" y="-10" type="curve" smooth="yes"/>
      <point x="416" y="-10"/>
      <point x="536" y="58"/>
      <point x="536" y="228" type="curve" smooth="yes"/>
      <point x="536" y="346"/>
      <point x="478" y="404"/>
      <point x="336" y="406" type="curve"/>
      <point x="389" y="455" type="line" smooth="yes"/>
      <point x="465" y="486"/>
      <point x="515" y="534"/>
      <point x="515" y="604" type="curve" smooth="yes"/>
      <point x="515" y="673"/>
      <point x="466" y="725"/>
      <point x="365" y="725" type="curve" smooth="yes"/>
      <point x="247" y="725"/>
      <point x="181" y="644"/>
      <point x="154" y="521" type="curve" smooth="yes"/>
      <point x="61" y="82" type="line" smooth="yes"/>
      <point x="48" y="21"/>
      <point x="35" y="10"/>
      <point x="-13" y="10" type="curve" smooth="yes"/>
      <point x="-30" y="10" type="line"/>
      <point x="-32" y="0" type="line"/>
      <point x="135" y="0" type="line"/>
      <point x="250" y="549" type="line" smooth="yes"/>
      <point x="272" y="650"/>
      <point x="297" y="715"/>
      <point x="360" y="715" type="curve" smooth="yes"/>
      <point x="407" y="715"/>
      <point x="428" y="677"/>
      <point x="428" y="627" type="curve" smooth="yes"/>
      <point x="428" y="559"/>
      <point x="402" y="489"/>
      <point x="352" y="442" type="curve" smooth="yes"/>
      <point x="320" y="407" type="line"/>
      <point x="317" y="394" type="line"/>
      <point x="329" y="394" type="line" smooth="yes"/>
      <point x="401" y="394"/>
      <point x="449" y="357"/>
      <point x="449" y="254" type="curve" smooth="yes"/>
      <point x="449" y="108"/>
      <point x="397" y="0"/>
      <point x="332" y="0" type="curve" smooth="yes"/>
      <point x="281" y="0"/>
      <point x="257" y="35"/>
      <point x="257" y="160" type="curve"/>
      <point x="217" y="160"/>
      <point x="195" y="140"/>
      <point x="195" y="101" type="curve" smooth="yes"/>
      <point x="195" y="44"/>
      <point x="235" y="-10"/>
    </contour>
  </outline>
</glyph>
<glyph name="ll-middleWelsh" format="2">
  <advance width="497"/>
  <unicode hex="1EFB"/>
  <anchor x="178" y="0" name="bottom"/>
  <anchor x="224" y="268" name="center"/>
  <anchor x="315" y="760" name="top"/>
  <anchor x="542" y="760" name="topright"/>
  <outline>
    <contour>
      <point x="133" y="-10" type="curve" smooth="yes"/>
      <point x="200" y="-10"/>
      <point x="256" y="32"/>
      <point x="289" y="70" type="curve"/>
      <point x="284" y="77" type="line"/>
      <point x="253" y="44"/>
      <point x="215" y="15"/>
      <point x="176" y="15" type="curve" smooth="yes"/>
      <point x="139" y="15"/>
      <point x="124" y="40"/>
      <point x="124" y="80" type="curve" smooth="yes"/>
      <point x="124" y="100"/>
      <point x="128" y="122"/>
      <point x="134" y="151" type="curve" smooth="yes"/>
      <point x="265" y="760" type="line"/>
      <point x="105" y="760" type="line"/>
      <point x="103" y="750" type="line"/>
      <point x="123" y="750" type="line" smooth="yes"/>
      <point x="159" y="750"/>
      <point x="163" y="737"/>
      <point x="163" y="719" type="curve" smooth="yes"/>
      <point x="163" y="711"/>
      <point x="161" y="699"/>
      <point x="158" y="687" type="curve" smooth="yes"/>
      <point x="53" y="187" type="line" smooth="yes"/>
      <point x="44" y="142"/>
      <point x="37" y="108"/>
      <point x="37" y="80" type="curve" smooth="yes"/>
      <point x="37" y="24"/>
      <point x="66" y="-10"/>
    </contour>
    <contour>
      <point x="66" y="586" type="line"/>
      <point x="537" y="586" type="line"/>
      <point x="539" y="596" type="line"/>
      <point x="68" y="596" type="line"/>
    </contour>
    <component base="l" xOffset="226"/>
  </outline>
</glyph>
<glyph name="v-middleWelsh" format="2">
  <advance width="467"/>
  <unicode hex="1EFD"/>
  <anchor x="190" y="0" name="bottom"/>
  <anchor x="339" y="765" name="top"/>
  <outline>
    <contour>
      <point x="202" y="-10" type="curve" smooth="yes"/>
      <point x="343" y="-10"/>
      <point x="434" y="115"/>
      <point x="434" y="267" type="curve" smooth="yes"/>
      <point x="434" y="369"/>
      <point x="388" y="425"/>
      <point x="315" y="425" type="curve" smooth="yes"/>
      <point x="271" y="425"/>
      <point x="224" y="404"/>
      <point x="224" y="369" type="curve" smooth="yes"/>
      <point x="224" y="364"/>
      <point x="226" y="360"/>
      <point x="229" y="358" type="curve"/>
      <point x="249" y="390"/>
      <point x="266" y="400"/>
      <point x="285" y="400" type="curve" smooth="yes"/>
      <point x="323" y="400"/>
      <point x="347" y="363"/>
      <point x="347" y="258" type="curve" smooth="yes"/>
      <point x="347" y="99"/>
      <point x="284" y="0"/>
      <point x="209" y="0" type="curve" smooth="yes"/>
      <point x="156" y="0"/>
      <point x="128" y="46"/>
      <point x="128" y="155" type="curve" smooth="yes"/>
      <point x="128" y="417"/>
      <point x="268" y="677"/>
      <point x="447" y="757" type="curve"/>
      <point x="446" y="768" type="line"/>
      <point x="203" y="669"/>
      <point x="44" y="433"/>
      <point x="44" y="195" type="curve" smooth="yes"/>
      <point x="44" y="57"/>
      <point x="103" y="-10"/>
    </contour>
  </outline>
</glyph>
<glyph name="uni1FEF" format="2">
  <advance width="227"/>
  <unicode hex="1FEF"/>
  <anchor x="212" y="536" name="_top"/>
  <anchor x="252" y="778" name="top"/>
  <outline>
    <contour>
      <point x="255" y="620" type="curve"/>
      <point x="271" y="620" type="line"/>
      <point x="272" y="633" type="line"/>
      <point x="260" y="672"/>
      <point x="245" y="734"/>
      <point x="241" y="784" type="curve"/>
      <point x="159" y="784" type="line"/>
      <point x="158" y="773" type="line"/>
      <point x="176" y="742"/>
      <point x="224" y="656"/>
    </contour>
  </outline>
</glyph>
<glyph name="quoteright" format="2">
  <advance width="196"/>
  <unicode hex="2019"/>
  <outline>
    <contour>
      <point x="94" y="463" type="line"/>
      <point x="193" y="493"/>
      <point x="232" y="563"/>
      <point x="232" y="639" type="curve" smooth="yes"/>
      <point x="232" y="688"/>
      <point x="210" y="715"/>
      <point x="176" y="715" type="curve" smooth="yes"/>
      <point x="148" y="715"/>
      <point x="132" y="696"/>
      <point x="132" y="670" type="curve" smooth="yes"/>
      <point x="132" y="620"/>
      <point x="188" y="625"/>
      <point x="188" y="569" type="curve" smooth="yes"/>
      <point x="188" y="532"/>
      <point x="154" y="493"/>
      <point x="93" y="474" type="curve"/>
    </contour>
  </outline>
</glyph>
<glyph name="quotedblright" format="2">
  <advance width="336"/>
  <unicode hex="201D"/>
  <outline>
    <contour>
      <point x="237" y="463" type="line"/>
      <point x="336" y="493"/>
      <point x="375" y="563"/>
      <point x="375" y="639" type="curve" smooth="yes"/>
      <point x="375" y="688"/>
      <point x="353" y="715"/>
      <point x="319" y="715" type="curve" smooth="yes"/>
      <point x="291" y="715"/>
      <point x="275" y="696"/>
      <point x="275" y="670" type="curve" smooth="yes"/>
      <point x="275" y="620"/>
      <point x="331" y="625"/>
      <point x="331" y="569" type="curve" smooth="yes"/>
      <point x="331" y="532"/>
      <point x="297" y="493"/>
      <point x="236" y="474" type="curve"/>
    </contour>
    <contour>
      <point x="84" y="463" type="line"/>
      <point x="183" y="493"/>
      <point x="222" y="563"/>
      <point x="222" y="639" type="curve" smooth="yes"/>
      <point x="222" y="688"/>
      <point x="200" y="715"/>
      <point x="166" y="715" type="curve" smooth="yes"/>
      <point x="138" y="715"/>
      <point x="122" y="696"/>
      <point x="122" y="670" type="curve" smooth="yes"/>
      <point x="122" y="620"/>
      <point x="178" y="625"/>
      <point x="178" y="569" type="curve" smooth="yes"/>
      <point x="178" y="532"/>
      <point x="144" y="493"/>
      <point x="83" y="474" type="curve"/>
    </contour>
  </outline>
</glyph>
<glyph name="dagger" format="2">
  <advance width="362"/>
  <unicode hex="2020"/>
  <outline>
    <contour>
      <point x="98" y="-111" type="curve"/>
      <point x="108" y="-111" type="line"/>
      <point x="169" y="165"/>
      <point x="204" y="225"/>
      <point x="244" y="375" type="curve"/>
      <point x="238" y="505" type="line"/>
      <point x="376" y="472" type="line"/>
      <point x="395" y="548" type="line"/>
      <point x="240" y="515" type="line"/>
      <point x="322" y="760" type="line"/>
      <point x="253" y="760" type="line"/>
      <point x="230" y="515" type="line"/>
      <point x="90" y="547" type="line"/>
      <point x="73" y="471" type="line"/>
      <point x="228" y="505" type="line"/>
      <point x="167" y="376" type="line"/>
      <point x="162" y="253"/>
      <point x="134" y="71"/>
    </contour>
  </outline>
</glyph>
<glyph name="bracketleftwithquill" format="2">
  <advance width="278"/>
  <unicode hex="2045"/>
  <outline>
    <contour>
      <point x="-22" y="-128" type="line"/>
      <point x="164" y="-128" type="line"/>
      <point x="166" y="-118" type="line"/>
      <point x="127" y="-118" type="line" smooth="yes"/>
      <point x="88" y="-118"/>
      <point x="75" y="-113"/>
      <point x="75" y="-89" type="curve" smooth="yes"/>
      <point x="75" y="-79"/>
      <point x="78" y="-67"/>
      <point x="81" y="-51" type="curve" smooth="yes"/>
      <point x="158" y="313" type="line"/>
      <point x="252" y="313" type="line"/>
      <point x="254" y="323" type="line"/>
      <point x="160" y="323" type="line"/>
      <point x="236" y="682" type="line" smooth="yes"/>
      <point x="250" y="745"/>
      <point x="264" y="750"/>
      <point x="313" y="750" type="curve" smooth="yes"/>
      <point x="350" y="750" type="line"/>
      <point x="353" y="760" type="line"/>
      <point x="165" y="760" type="line"/>
    </contour>
  </outline>
</glyph>
<glyph name="closeup" format="2">
  <advance width="583"/>
  <unicode hex="2050"/>
  <outline>
    <contour>
      <point x="66" y="532" type="curve"/>
      <point x="76" y="532" type="line"/>
      <point x="116" y="616"/>
      <point x="181" y="678"/>
      <point x="329" y="678" type="curve" smooth="yes"/>
      <point x="468" y="678"/>
      <point x="532" y="616"/>
      <point x="570" y="532" type="curve"/>
      <point x="580" y="532" type="line"/>
      <point x="547" y="646"/>
      <point x="453" y="725"/>
      <point x="331" y="725" type="curve" smooth="yes"/>
      <point x="204" y="725"/>
      <point x="110" y="646"/>
    </contour>
    <contour>
      <point x="300" y="-10" type="curve" smooth="yes"/>
      <point x="427" y="-10"/>
      <point x="522" y="69"/>
      <point x="565" y="183" type="curve"/>
      <point x="555" y="183" type="line"/>
      <point x="515" y="99"/>
      <point x="450" y="37"/>
      <point x="302" y="37" type="curve" smooth="yes"/>
      <point x="163" y="37"/>
      <point x="100" y="99"/>
      <point x="62" y="183" type="curve"/>
      <point x="51" y="183" type="line"/>
      <point x="84" y="69"/>
      <point x="178" y="-10"/>
    </contour>
  </outline>
</glyph>
<glyph name="fourdotmark" format="2">
  <advance width="585"/>
  <unicode hex="205B"/>
  <outline>
    <contour>
      <point x="310" y="606" type="curve" smooth="yes"/>
      <point x="337" y="606"/>
      <point x="362" y="622"/>
      <point x="362" y="667" type="curve" smooth="yes"/>
      <point x="362" y="710"/>
      <point x="339" y="724"/>
      <point x="313" y="724" type="curve" smooth="yes"/>
      <point x="283" y="724"/>
      <point x="259" y="709"/>
      <point x="259" y="663" type="curve" smooth="yes"/>
      <point x="259" y="621"/>
      <point x="281" y="606"/>
    </contour>
    <contour>
      <point x="299" y="-10" type="curve" smooth="yes"/>
      <point x="327" y="-10"/>
      <point x="351" y="6"/>
      <point x="351" y="52" type="curve" smooth="yes"/>
      <point x="351" y="94"/>
      <point x="328" y="108"/>
      <point x="302" y="108" type="curve" smooth="yes"/>
      <point x="272" y="108"/>
      <point x="249" y="94"/>
      <point x="249" y="47" type="curve" smooth="yes"/>
      <point x="249" y="5"/>
      <point x="271" y="-10"/>
    </contour>
    <contour>
      <point x="119" y="302" type="curve" smooth="yes"/>
      <point x="146" y="302"/>
      <point x="170" y="317"/>
      <point x="170" y="363" type="curve" smooth="yes"/>
      <point x="170" y="405"/>
      <point x="147" y="420"/>
      <point x="122" y="420" type="curve" smooth="yes"/>
      <point x="91" y="420"/>
      <point x="68" y="404"/>
      <point x="68" y="358" type="curve" smooth="yes"/>
      <point x="68" y="316"/>
      <point x="90" y="302"/>
    </contour>
    <contour>
      <point x="491" y="302" type="curve" smooth="yes"/>
      <point x="518" y="302"/>
      <point x="543" y="317"/>
      <point x="543" y="363" type="curve" smooth="yes"/>
      <point x="543" y="405"/>
      <point x="520" y="420"/>
      <point x="494" y="420" type="curve" smooth="yes"/>
      <point x="464" y="420"/>
      <point x="440" y="404"/>
      <point x="440" y="358" type="curve" smooth="yes"/>
      <point x="440" y="316"/>
      <point x="463" y="302"/>
    </contour>
  </outline>
</glyph>
<glyph name="uni2069" format="2">
  <advance width="1000"/>
  <unicode hex="2069"/>
  <outline>
    <contour>
      <point x="425" y="164" type="line"/>
      <point x="556" y="164" type="line"/>
      <point x="649" y="164"/>
      <point x="698" y="225"/>
      <point x="698" y="312" type="curve" smooth="yes"/>
      <point x="698" y="403"/>
      <point x="645" y="450"/>
      <point x="556" y="450" type="curve"/>
      <point x="425" y="450" type="line"/>
      <point x="425" y="429" type="line"/>
      <point x="441" y="429" type="line"/>
      <point x="453" y="429"/>
      <point x="462" y="426"/>
      <point x="462" y="405" type="curve" smooth="yes"/>
      <point x="462" y="211" type="line"/>
      <point x="462" y="188"/>
      <point x="453" y="185"/>
      <point x="441" y="185" type="curve"/>
      <point x="425" y="185" type="line"/>
    </contour>
    <contour>
      <point x="55" y="-187" type="line"/>
      <point x="203" y="-187" type="line"/>
      <point x="203" y="-134" type="line"/>
      <point x="109" y="-134" type="line"/>
      <point x="109" y="-39" type="line"/>
      <point x="55" y="-39" type="line"/>
    </contour>
    <contour>
      <point x="55" y="19" type="line"/>
      <point x="109" y="19" type="line"/>
      <point x="109" y="151" type="line"/>
      <point x="55" y="151" type="line"/>
    </contour>
    <contour>
      <point x="262" y="-187" type="line"/>
      <point x="394" y="-187" type="line"/>
      <point x="394" y="-134" type="line"/>
      <point x="262" y="-134" type="line"/>
    </contour>
    <contour>
      <point x="55" y="210" type="line"/>
      <point x="109" y="210" type="line"/>
      <point x="109" y="343" type="line"/>
      <point x="55" y="343" type="line"/>
    </contour>
    <contour>
      <point x="453" y="-187" type="line"/>
      <point x="586" y="-187" type="line"/>
      <point x="586" y="-134" type="line"/>
      <point x="453" y="-134" type="line"/>
    </contour>
    <contour>
      <point x="644" y="-187" type="line"/>
      <point x="777" y="-187" type="line"/>
      <point x="777" y="-134" type="line"/>
      <point x="644" y="-134" type="line"/>
    </contour>
    <contour>
      <point x="55" y="402" type="line"/>
      <point x="109" y="402" type="line"/>
      <point x="109" y="534" type="line"/>
      <point x="55" y="534" type="line"/>
    </contour>
    <contour>
      <point x="170" y="164" type="line"/>
      <point x="316" y="164" type="line"/>
      <point x="316" y="185" type="line"/>
      <point x="291" y="185" type="line"/>
      <point x="280" y="185"/>
      <point x="270" y="188"/>
      <point x="270" y="209" type="curve" smooth="yes"/>
      <point x="270" y="273" type="line"/>
      <point x="284" y="273" type="line"/>
      <point x="370" y="273"/>
      <point x="402" y="317"/>
      <point x="402" y="365" type="curve" smooth="yes"/>
      <point x="402" y="418"/>
      <point x="366" y="450"/>
      <point x="293" y="450" type="curve" smooth="yes"/>
      <point x="170" y="450" type="line"/>
      <point x="170" y="429" type="line"/>
      <point x="187" y="429" type="line"/>
      <point x="198" y="429"/>
      <point x="207" y="426"/>
      <point x="207" y="405" type="curve" smooth="yes"/>
      <point x="207" y="211" type="line"/>
      <point x="207" y="188"/>
      <point x="199" y="185"/>
      <point x="187" y="185" type="curve"/>
      <point x="170" y="185" type="line"/>
    </contour>
    <contour>
      <point x="270" y="297" type="line"/>
      <point x="270" y="427" type="line"/>
      <point x="286" y="427" type="line"/>
      <point x="321" y="427"/>
      <point x="335" y="407"/>
      <point x="335" y="364" type="curve" smooth="yes"/>
      <point x="335" y="316"/>
      <point x="319" y="297"/>
      <point x="280" y="297" type="curve"/>
    </contour>
    <contour>
      <point x="55" y="593" type="line"/>
      <point x="109" y="593" type="line"/>
      <point x="109" y="687" type="line"/>
      <point x="203" y="687" type="line"/>
      <point x="203" y="741" type="line"/>
      <point x="55" y="741" type="line"/>
    </contour>
    <contour>
      <point x="835" y="-187" type="line"/>
      <point x="983" y="-187" type="line"/>
      <point x="983" y="-39" type="line"/>
      <point x="930" y="-39" type="line"/>
      <point x="930" y="-134" type="line"/>
      <point x="835" y="-134" type="line"/>
    </contour>
    <contour>
      <point x="525" y="189" type="line"/>
      <point x="525" y="426" type="line"/>
      <point x="548" y="426" type="line"/>
      <point x="602" y="426"/>
      <point x="630" y="389"/>
      <point x="630" y="312" type="curve" smooth="yes"/>
      <point x="630" y="236"/>
      <point x="602" y="189"/>
      <point x="547" y="189" type="curve"/>
    </contour>
    <contour>
      <point x="930" y="19" type="line"/>
      <point x="983" y="19" type="line"/>
      <point x="983" y="151" type="line"/>
      <point x="930" y="151" type="line"/>
    </contour>
    <contour>
      <point x="262" y="687" type="line"/>
      <point x="394" y="687" type="line"/>
      <point x="394" y="741" type="line"/>
      <point x="262" y="741" type="line"/>
    </contour>
    <contour>
      <point x="731" y="164" type="line"/>
      <point x="868" y="164" type="line"/>
      <point x="868" y="185" type="line"/>
      <point x="852" y="185" type="line"/>
      <point x="840" y="185"/>
      <point x="831" y="188"/>
      <point x="831" y="211" type="curve"/>
      <point x="831" y="403" type="line"/>
      <point x="831" y="426"/>
      <point x="840" y="429"/>
      <point x="852" y="429" type="curve"/>
      <point x="868" y="429" type="line"/>
      <point x="868" y="450" type="line"/>
      <point x="731" y="450" type="line"/>
      <point x="731" y="429" type="line"/>
      <point x="748" y="429" type="line"/>
      <point x="759" y="429"/>
      <point x="768" y="426"/>
      <point x="768" y="403" type="curve"/>
      <point x="768" y="211" type="line"/>
      <point x="768" y="188"/>
      <point x="759" y="185"/>
      <point x="748" y="185" type="curve"/>
      <point x="731" y="185" type="line"/>
    </contour>
    <contour>
      <point x="930" y="210" type="line"/>
      <point x="983" y="210" type="line"/>
      <point x="983" y="343" type="line"/>
      <point x="930" y="343" type="line"/>
    </contour>
    <contour>
      <point x="453" y="687" type="line"/>
      <point x="586" y="687" type="line"/>
      <point x="586" y="741" type="line"/>
      <point x="453" y="741" type="line"/>
    </contour>
    <contour>
      <point x="930" y="402" type="line"/>
      <point x="983" y="402" type="line"/>
      <point x="983" y="534" type="line"/>
      <point x="930" y="534" type="line"/>
    </contour>
    <contour>
      <point x="644" y="687" type="line"/>
      <point x="777" y="687" type="line"/>
      <point x="777" y="741" type="line"/>
      <point x="644" y="741" type="line"/>
    </contour>
    <contour>
      <point x="930" y="593" type="line"/>
      <point x="983" y="593" type="line"/>
      <point x="983" y="741" type="line"/>
      <point x="835" y="741" type="line"/>
      <point x="835" y="687" type="line"/>
      <point x="930" y="687" type="line"/>
    </contour>
  </outline>
</glyph>
<glyph name="parenrightsuperior" format="2">
  <advance width="230"/>
  <unicode hex="207E"/>
  <outline>
    <contour>
      <point x="10" y="191" type="line"/>
      <point x="148" y="232"/>
      <point x="246" y="369"/>
      <point x="246" y="555" type="curve" smooth="yes"/>
      <point x="246" y="648"/>
      <point x="207" y="740"/>
      <point x="136" y="783" type="curve"/>
      <point x="134" y="773" type="line"/>
      <point x="170" y="737"/>
      <point x="192" y="653"/>
      <point x="192" y="568" type="curve" smooth="yes"/>
      <point x="192" y="390"/>
      <point x="122" y="254"/>
      <point x="12" y="201" type="curve"/>
    </contour>
  </outline>
</glyph>
<glyph name="uni20A5" format="2">
  <advance width="708"/>
  <unicode hex="20A5"/>
  <anchor x="298" y="0" name="bottom"/>
  <anchor x="402" y="536" name="top"/>
  <anchor x="755" y="536" name="topright"/>
  <outline>
    <contour>
      <point x="123" y="-110" type="line"/>
      <point x="136" y="-110" type="line"/>
      <point x="542" y="666" type="line"/>
      <point x="529" y="666" type="line"/>
    </contour>
    <component base="m" xOffset="-9"/>
  </outline>
</glyph>
<glyph name="uni20A9" format="2">
  <advance width="831"/>
  <unicode hex="20A9"/>
  <anchor x="357" y="0" name="bottom"/>
  <anchor x="509" y="714" name="top"/>
  <anchor x="957" y="714" name="topright"/>
  <outline>
    <contour>
      <point x="64" y="434" type="line"/>
      <point x="847" y="434" type="line"/>
      <point x="849" y="444" type="line"/>
      <point x="66" y="444" type="line"/>
    </contour>
    <contour>
      <point x="41" y="319" type="line"/>
      <point x="824" y="320" type="line"/>
      <point x="826" y="330" type="line"/>
      <point x="43" y="330" type="line"/>
    </contour>
    <component base="W" xOffset="-6"/>
  </outline>
</glyph>
<glyph name="trademark" format="2">
  <advance width="629"/>
  <unicode hex="2122"/>
  <outline>
    <contour>
      <point x="322" y="368" type="line"/>
      <point x="408" y="368" type="line"/>
      <point x="408" y="378" type="line"/>
      <point x="376" y="378"/>
      <point x="370" y="384"/>
      <point x="370" y="413" type="curve" smooth="yes"/>
      <point x="370" y="683" type="line"/>
      <point x="471" y="368" type="line"/>
      <point x="494" y="368" type="line"/>
      <point x="581" y="667" type="line"/>
      <point x="581" y="412" type="line" smooth="yes"/>
      <point x="581" y="383"/>
      <point x="575" y="378"/>
      <point x="549" y="378" type="curve"/>
      <point x="549" y="368" type="line"/>
      <point x="658" y="368" type="line"/>
      <point x="658" y="378" type="line"/>
      <point x="649" y="378" type="line" smooth="yes"/>
      <point x="625" y="378"/>
      <point x="620" y="383"/>
      <point x="620" y="413" type="curve" smooth="yes"/>
      <point x="620" y="667" type="line" smooth="yes"/>
      <point x="620" y="698"/>
      <point x="625" y="703"/>
      <point x="649" y="703" type="curve" smooth="yes"/>
      <point x="658" y="703" type="line"/>
      <point x="658" y="714" type="line"/>
      <point x="584" y="714" type="line"/>
      <point x="495" y="408" type="line"/>
      <point x="398" y="714" type="line"/>
      <point x="325" y="714" type="line"/>
      <point x="325" y="704" type="line"/>
      <point x="332" y="704" type="line" smooth="yes"/>
      <point x="355" y="704"/>
      <point x="360" y="698"/>
      <point x="360" y="669" type="curve" smooth="yes"/>
      <point x="360" y="410" type="line" smooth="yes"/>
      <point x="360" y="384"/>
      <point x="355" y="378"/>
      <point x="332" y="378" type="curve" smooth="yes"/>
      <point x="322" y="378" type="line"/>
    </contour>
    <contour>
      <point x="132" y="368" type="line"/>
      <point x="259" y="368" type="line"/>
      <point x="259" y="378" type="line"/>
      <point x="250" y="378" type="line" smooth="yes"/>
      <point x="223" y="378"/>
      <point x="216" y="385"/>
      <point x="216" y="413" type="curve" smooth="yes"/>
      <point x="216" y="704" type="line"/>
      <point x="249" y="704" type="line" smooth="yes"/>
      <point x="285" y="704"/>
      <point x="295" y="694"/>
      <point x="298" y="659" type="curve" smooth="yes"/>
      <point x="299" y="626" type="line"/>
      <point x="309" y="626" type="line"/>
      <point x="307" y="714" type="line"/>
      <point x="87" y="714" type="line"/>
      <point x="85" y="626" type="line"/>
      <point x="95" y="626" type="line"/>
      <point x="96" y="659" type="line" smooth="yes"/>
      <point x="98" y="693"/>
      <point x="107" y="704"/>
      <point x="145" y="704" type="curve" smooth="yes"/>
      <point x="177" y="704" type="line"/>
      <point x="177" y="412" type="line" smooth="yes"/>
      <point x="177" y="384"/>
      <point x="169" y="378"/>
      <point x="143" y="378" type="curve" smooth="yes"/>
      <point x="132" y="378" type="line"/>
    </contour>
  </outline>
</glyph>
<glyph name="ounce" format="2">
  <advance width="423"/>
  <unicode hex="2125"/>
  <outline>
    <contour>
      <point x="80" y="-241" type="curve" smooth="yes"/>
      <point x="223" y="-241"/>
      <point x="321" y="-133"/>
      <point x="321" y="15" type="curve" smooth="yes"/>
      <point x="321" y="140"/>
      <point x="256" y="204"/>
      <point x="108" y="204" type="curve"/>
      <point x="384" y="431" type="line"/>
      <point x="390" y="459" type="line"/>
      <point x="153" y="459" type="line"/>
      <point x="439" y="686" type="line"/>
      <point x="446" y="714" type="line"/>
      <point x="128" y="714" type="line"/>
      <point x="95" y="565" type="line"/>
      <point x="105" y="565" type="line"/>
      <point x="110" y="579" type="line" smooth="yes"/>
      <point x="129" y="642"/>
      <point x="140" y="653"/>
      <point x="194" y="653" type="curve" smooth="yes"/>
      <point x="374" y="653" type="line"/>
      <point x="77" y="417" type="line"/>
      <point x="72" y="397" type="line"/>
      <point x="320" y="397" type="line"/>
      <point x="64" y="184" type="line"/>
      <point x="61" y="164" type="line"/>
      <point x="90" y="164" type="line" smooth="yes"/>
      <point x="186" y="164"/>
      <point x="234" y="121"/>
      <point x="234" y="12" type="curve" smooth="yes"/>
      <point x="234" y="-115"/>
      <point x="176" y="-231"/>
      <point x="77" y="-231" type="curve" smooth="yes"/>
      <point x="32" y="-231"/>
      <point x="1" y="-202"/>
      <point x="1" y="-140" type="curve" smooth="yes"/>
      <point x="1" y="-127"/>
      <point x="3" y="-112"/>
      <point x="6" y="-96" type="curve"/>
      <point x="-31" y="-96"/>
      <point x="-57" y="-113"/>
      <point x="-57" y="-150" type="curve" smooth="yes"/>
      <point x="-57" y="-202"/>
      <point x="-16" y="-241"/>
    </contour>
  </outline>
</glyph>
<glyph name="facsimile" format="2">
  <advance width="814"/>
  <unicode hex="213B"/>
  <outline>
    <contour>
      <point x="285" y="370" type="line"/>
      <point x="388" y="370" type="line"/>
      <point x="388" y="381" type="line"/>
      <point x="373" y="381" type="line" smooth="yes"/>
      <point x="352" y="381"/>
      <point x="345" y="389"/>
      <point x="345" y="402" type="curve" smooth="yes"/>
      <point x="345" y="410"/>
      <point x="347" y="420"/>
      <point x="349" y="428" type="curve" smooth="yes"/>
      <point x="367" y="493" type="line"/>
      <point x="465" y="493" type="line"/>
      <point x="482" y="426" type="line" smooth="yes"/>
      <point x="485" y="414"/>
      <point x="487" y="404"/>
      <point x="487" y="399" type="curve" smooth="yes"/>
      <point x="487" y="388"/>
      <point x="481" y="381"/>
      <point x="464" y="381" type="curve" smooth="yes"/>
      <point x="454" y="381" type="line"/>
      <point x="454" y="370" type="line"/>
      <point x="573" y="370" type="line"/>
      <point x="573" y="381" type="line"/>
      <point x="568" y="381" type="line" smooth="yes"/>
      <point x="554" y="381"/>
      <point x="549" y="387"/>
      <point x="543" y="409" type="curve" smooth="yes"/>
      <point x="456" y="714" type="line"/>
      <point x="418" y="714" type="line"/>
      <point x="335" y="418" type="line" smooth="yes"/>
      <point x="327" y="388"/>
      <point x="319" y="381"/>
      <point x="300" y="381" type="curve" smooth="yes"/>
      <point x="285" y="381" type="line"/>
    </contour>
    <contour>
      <point x="93" y="371" type="line"/>
      <point x="229" y="371" type="line"/>
      <point x="229" y="381" type="line"/>
      <point x="213" y="381" type="line" smooth="yes"/>
      <point x="195" y="381"/>
      <point x="185" y="386"/>
      <point x="185" y="416" type="curve" smooth="yes"/>
      <point x="185" y="539" type="line"/>
      <point x="278" y="539" type="line"/>
      <point x="278" y="549" type="line"/>
      <point x="185" y="549" type="line"/>
      <point x="185" y="703" type="line"/>
      <point x="246" y="703" type="line" smooth="yes"/>
      <point x="282" y="703"/>
      <point x="293" y="684"/>
      <point x="295" y="652" type="curve" smooth="yes"/>
      <point x="296" y="630" type="line"/>
      <point x="306" y="630" type="line"/>
      <point x="304" y="713" type="line"/>
      <point x="93" y="713" type="line"/>
      <point x="93" y="703" type="line"/>
      <point x="104" y="703" type="line" smooth="yes"/>
      <point x="120" y="703"/>
      <point x="130" y="697"/>
      <point x="130" y="670" type="curve" smooth="yes"/>
      <point x="130" y="414" type="line" smooth="yes"/>
      <point x="130" y="388"/>
      <point x="122" y="381"/>
      <point x="103" y="381" type="curve" smooth="yes"/>
      <point x="93" y="381" type="line"/>
    </contour>
    <contour>
      <point x="370" y="503" type="line"/>
      <point x="400" y="610" type="line" smooth="yes"/>
      <point x="407" y="635"/>
      <point x="413" y="662"/>
      <point x="418" y="683" type="curve"/>
      <point x="423" y="662"/>
      <point x="429" y="635"/>
      <point x="436" y="606" type="curve" smooth="yes"/>
      <point x="462" y="503" type="line"/>
    </contour>
    <contour>
      <point x="585" y="370" type="line"/>
      <point x="676" y="370" type="line"/>
      <point x="676" y="381" type="line"/>
      <point x="649" y="381"/>
      <point x="639" y="385"/>
      <point x="639" y="397" type="curve" smooth="yes"/>
      <point x="639" y="407"/>
      <point x="644" y="420"/>
      <point x="651" y="434" type="curve" smooth="yes"/>
      <point x="696" y="525" type="line"/>
      <point x="741" y="435" type="line" smooth="yes"/>
      <point x="752" y="413"/>
      <point x="756" y="406"/>
      <point x="756" y="398" type="curve" smooth="yes"/>
      <point x="756" y="386"/>
      <point x="747" y="381"/>
      <point x="729" y="381" type="curve"/>
      <point x="729" y="370" type="line"/>
      <point x="849" y="370" type="line"/>
      <point x="849" y="381" type="line"/>
      <point x="846" y="381" type="line" smooth="yes"/>
      <point x="837" y="381"/>
      <point x="826" y="387"/>
      <point x="816" y="408" type="curve" smooth="yes"/>
      <point x="736" y="566" type="line"/>
      <point x="788" y="667" type="line" smooth="yes"/>
      <point x="804" y="696"/>
      <point x="814" y="703"/>
      <point x="829" y="703" type="curve" smooth="yes"/>
      <point x="835" y="703" type="line"/>
      <point x="835" y="713" type="line"/>
      <point x="745" y="713" type="line"/>
      <point x="745" y="703" type="line"/>
      <point x="765" y="703"/>
      <point x="778" y="701"/>
      <point x="778" y="684" type="curve" smooth="yes"/>
      <point x="778" y="673"/>
      <point x="775" y="664"/>
      <point x="769" y="652" type="curve" smooth="yes"/>
      <point x="730" y="576" type="line"/>
      <point x="688" y="659" type="line" smooth="yes"/>
      <point x="683" y="670"/>
      <point x="679" y="680"/>
      <point x="679" y="688" type="curve" smooth="yes"/>
      <point x="679" y="699"/>
      <point x="686" y="703"/>
      <point x="702" y="703" type="curve"/>
      <point x="702" y="713" type="line"/>
      <point x="581" y="713" type="line"/>
      <point x="581" y="703" type="line"/>
      <point x="587" y="703" type="line" smooth="yes"/>
      <point x="599" y="703"/>
      <point x="611" y="695"/>
      <point x="621" y="675" type="curve" smooth="yes"/>
      <point x="691" y="534" type="line"/>
      <point x="633" y="419" type="line" smooth="yes"/>
      <point x="615" y="384"/>
      <point x="608" y="381"/>
      <point x="585" y="381" type="curve"/>
    </contour>
  </outline>
</glyph>
<glyph name="turnedSansSerifL" format="2">
  <advance width="487"/>
  <unicode hex="2142"/>
  <outline>
    <contour>
      <point x="158" y="0" type="line"/>
      <point x="401" y="0" type="line"/>
      <point x="403" y="10" type="line"/>
      <point x="383" y="10" type="line" smooth="yes"/>
      <point x="354" y="10"/>
      <point x="334" y="13"/>
      <point x="334" y="35" type="curve" smooth="yes"/>
      <point x="334" y="42"/>
      <point x="335" y="54"/>
      <point x="339" y="68" type="curve" smooth="yes"/>
      <point x="459" y="638" type="line" smooth="yes"/>
      <point x="472" y="699"/>
      <point x="491" y="704"/>
      <point x="530" y="704" type="curve" smooth="yes"/>
      <point x="549" y="704" type="line"/>
      <point x="552" y="714" type="line"/>
      <point x="114" y="714" type="line"/>
      <point x="64" y="500" type="line"/>
      <point x="75" y="500" type="line"/>
      <point x="93" y="572" type="line" smooth="yes"/>
      <point x="114" y="656"/>
      <point x="145" y="704"/>
      <point x="209" y="704" type="curve" smooth="yes"/>
      <point x="383" y="704" type="line"/>
      <point x="249" y="63" type="line" smooth="yes"/>
      <point x="240" y="19"/>
      <point x="217" y="10"/>
      <point x="180" y="10" type="curve" smooth="yes"/>
      <point x="161" y="10" type="line"/>
    </contour>
  </outline>
</glyph>
<glyph name="tophalfsectionsign" format="2">
  <advance width="449"/>
  <unicode hex="2E39"/>
  <outline>
    <contour>
      <point x="277" y="127" type="curve"/>
      <point x="369" y="192"/>
      <point x="412" y="242"/>
      <point x="412" y="311" type="curve" smooth="yes"/>
      <point x="412" y="377"/>
      <point x="374" y="410"/>
      <point x="304" y="462" type="curve" smooth="yes"/>
      <point x="237" y="512"/>
      <point x="204" y="534"/>
      <point x="204" y="612" type="curve" smooth="yes"/>
      <point x="204" y="699"/>
      <point x="244" y="747"/>
      <point x="312" y="747" type="curve" smooth="yes"/>
      <point x="368" y="747"/>
      <point x="390" y="710"/>
      <point x="390" y="603" type="curve"/>
      <point x="419" y="603"/>
      <point x="442" y="622"/>
      <point x="442" y="660" type="curve" smooth="yes"/>
      <point x="442" y="709"/>
      <point x="406" y="757"/>
      <point x="317" y="757" type="curve" smooth="yes"/>
      <point x="205" y="757"/>
      <point x="146" y="683"/>
      <point x="146" y="586" type="curve" smooth="yes"/>
      <point x="146" y="546"/>
      <point x="156" y="517"/>
      <point x="167" y="497" type="curve"/>
      <point x="126" y="468"/>
      <point x="90" y="434"/>
      <point x="90" y="364" type="curve" smooth="yes"/>
      <point x="90" y="302"/>
      <point x="118" y="263"/>
      <point x="193" y="212" type="curve" smooth="yes"/>
      <point x="226" y="188"/>
      <point x="254" y="167"/>
    </contour>
    <contour>
      <point x="331" y="174" type="curve"/>
      <point x="303" y="214"/>
      <point x="278" y="233"/>
      <point x="227" y="268" type="curve" smooth="yes"/>
      <point x="158" y="314"/>
      <point x="130" y="336"/>
      <point x="130" y="393" type="curve" smooth="yes"/>
      <point x="130" y="442"/>
      <point x="152" y="472"/>
      <point x="173" y="489" type="curve"/>
      <point x="205" y="454"/>
      <point x="218" y="443"/>
      <point x="276" y="402" type="curve" smooth="yes"/>
      <point x="353" y="345"/>
      <point x="371" y="319"/>
      <point x="371" y="275" type="curve" smooth="yes"/>
      <point x="371" y="228"/>
      <point x="351" y="194"/>
    </contour>
  </outline>
</glyph>
<glyph name="uni2E44" format="2">
  <advance width="244"/>
  <unicode hex="2E44"/>
  <outline>
    <contour>
      <point x="121" y="554" type="line"/>
      <point x="302" y="727" type="line"/>
      <point x="249" y="772" type="line"/>
      <point x="111" y="562" type="line"/>
    </contour>
    <contour>
      <point x="-19" y="-64" type="line"/>
      <point x="162" y="109" type="line"/>
      <point x="109" y="154" type="line"/>
      <point x="-29" y="-56" type="line"/>
    </contour>
  </outline>
</glyph>
<glyph name="uniA670" format="2">
  <unicode hex="A670"/>
  <outline>
    <contour>
      <point x="223" y="451" type="line"/>
      <point x="281" y="509" type="line"/>
      <point x="339" y="451" type="line"/>
      <point x="377" y="489" type="line"/>
      <point x="319" y="547" type="line"/>
      <point x="377" y="606" type="line"/>
      <point x="340" y="643" type="line"/>
      <point x="281" y="585" type="line"/>
      <point x="223" y="643" type="line"/>
      <point x="185" y="606" type="line"/>
      <point x="244" y="547" type="line"/>
      <point x="185" y="489" type="line"/>
    </contour>
    <contour>
      <point x="-339" y="-105" type="line"/>
      <point x="-281" y="-47" type="line"/>
      <point x="-223" y="-105" type="line"/>
      <point x="-185" y="-67" type="line"/>
      <point x="-243" y="-9" type="line"/>
      <point x="-185" y="50" type="line"/>
      <point x="-222" y="87" type="line"/>
      <point x="-281" y="29" type="line"/>
      <point x="-339" y="87" type="line"/>
      <point x="-377" y="50" type="line"/>
      <point x="-318" y="-9" type="line"/>
      <point x="-377" y="-67" type="line"/>
    </contour>
    <contour>
      <point x="-320" y="174" type="line"/>
      <point x="-282" y="212" type="line"/>
      <point x="-340" y="270" type="line"/>
      <point x="-282" y="328" type="line"/>
      <point x="-320" y="366" type="line"/>
      <point x="-378" y="308" type="line"/>
      <point x="-437" y="366" type="line"/>
      <point x="-474" y="329" type="line"/>
      <point x="-416" y="270" type="line"/>
      <point x="-474" y="213" type="line"/>
      <point x="-437" y="175" type="line"/>
      <point x="-378" y="234" type="line"/>
    </contour>
    <contour>
      <point x="-58" y="-203" type="line"/>
      <point x="0" y="-145" type="line"/>
      <point x="58" y="-203" type="line"/>
      <point x="96" y="-165" type="line"/>
      <point x="38" y="-107" type="line"/>
      <point x="96" y="-48" type="line"/>
      <point x="59" y="-11" type="line"/>
      <point x="0" y="-69" type="line"/>
      <point x="-58" y="-11" type="line"/>
      <point x="-96" y="-48" type="line"/>
      <point x="-37" y="-107" type="line"/>
      <point x="-96" y="-165" type="line"/>
    </contour>
    <contour>
      <point x="-339" y="451" type="line"/>
      <point x="-281" y="509" type="line"/>
      <point x="-223" y="451" type="line"/>
      <point x="-185" y="489" type="line"/>
      <point x="-243" y="547" type="line"/>
      <point x="-185" y="606" type="line"/>
      <point x="-222" y="643" type="line"/>
      <point x="-281" y="585" type="line"/>
      <point x="-339" y="643" type="line"/>
      <point x="-377" y="606" type="line"/>
      <point x="-318" y="547" type="line"/>
      <point x="-377" y="489" type="line"/>
    </contour>
    <contour>
      <point x="223" y="-105" type="line"/>
      <point x="281" y="-47" type="line"/>
      <point x="339" y="-105" type="line"/>
      <point x="377" y="-67" type="line"/>
      <point x="319" y="-9" type="line"/>
      <point x="377" y="50" type="line"/>
      <point x="340" y="87" type="line"/>
      <point x="281" y="29" type="line"/>
      <point x="223" y="87" type="line"/>
      <point x="185" y="50" type="line"/>
      <point x="244" y="-9" type="line"/>
      <point x="185" y="-67" type="line"/>
    </contour>
    <contour>
      <point x="318" y="174" type="line"/>
      <point x="377" y="233" type="line"/>
      <point x="435" y="174" type="line"/>
      <point x="473" y="212" type="line"/>
      <point x="415" y="270" type="line"/>
      <point x="473" y="328" type="line"/>
      <point x="435" y="366" type="line"/>
      <point x="377" y="308" type="line"/>
      <point x="318" y="366" type="line"/>
      <point x="281" y="329" type="line"/>
      <point x="339" y="270" type="line"/>
      <point x="281" y="212" type="line"/>
    </contour>
    <contour>
      <point x="-58" y="552" type="line"/>
      <point x="0" y="610" type="line"/>
      <point x="58" y="552" type="line"/>
      <point x="96" y="590" type="line"/>
      <point x="38" y="648" type="line"/>
      <point x="96" y="707" type="line"/>
      <point x="59" y="744" type="line"/>
      <point x="0" y="686" type="line"/>
      <point x="-58" y="744" type="line"/>
      <point x="-96" y="707" type="line"/>
      <point x="-37" y="648" type="line"/>
      <point x="-96" y="590" type="line"/>
    </contour>
  </outline>
</glyph>
<glyph name="uniA680" format="2">
  <advance width="554"/>
  <unicode hex="A680"/>
  <anchor x="223" y="0" name="bottom"/>
  <anchor x="375" y="714" name="top"/>
  <outline>
    <contour>
      <point x="317" y="704" type="line"/>
      <point x="327" y="704" type="line"/>
      <point x="355" y="840" type="line"/>
      <point x="345" y="840" type="line"/>
    </contour>
    <component base="afii10021"/>
  </outline>
</glyph>
<glyph name="uniA742" format="2">
  <advance width="570"/>
  <unicode hex="A742"/>
  <anchor x="227" y="0" name="bottom"/>
  <anchor x="379" y="714" name="top"/>
  <anchor x="636" y="714" name="topright"/>
  <outline>
    <contour>
      <point x="259" y="125" type="line"/>
      <point x="483" y="287" type="line"/>
      <point x="477" y="296" type="line"/>
      <point x="253" y="133" type="line"/>
    </contour>
    <component base="K" xOffset="1"/>
  </outline>
</glyph>
<glyph name="uniA748" format="2">
  <advance width="500"/>
  <unicode hex="A748"/>
  <anchor x="187" y="0" name="bottom"/>
  <anchor x="282" y="357" name="center"/>
  <anchor x="249" y="714" name="top"/>
  <anchor x="493" y="714" name="topright"/>
  <outline>
    <contour>
      <point x="101" y="568" type="line"/>
      <point x="347" y="568" type="line"/>
      <point x="349" y="578" type="line"/>
      <point x="103" y="578" type="line"/>
    </contour>
    <component base="L"/>
  </outline>
</glyph>
<glyph name="uniA7AE" format="2">
  <advance width="464"/>
  <unicode hex="A7AE"/>
  <outline>
    <contour>
      <point x="-22" y="0" type="line"/>
      <point x="372" y="0" type="line"/>
      <point x="410" y="154" type="line"/>
      <point x="398" y="154" type="line"/>
      <point x="382" y="97" type="line" smooth="yes"/>
      <point x="363" y="30"/>
      <point x="344" y="10"/>
      <point x="294" y="10" type="curve" smooth="yes"/>
      <point x="220" y="10" type="line"/>
      <point x="367" y="704" type="line"/>
      <point x="424" y="704" type="line" smooth="yes"/>
      <point x="473" y="704"/>
      <point x="493" y="686"/>
      <point x="493" y="642" type="curve" smooth="yes"/>
      <point x="493" y="627"/>
      <point x="490" y="605"/>
      <point x="482" y="560" type="curve"/>
      <point x="492" y="560" type="line"/>
      <point x="522" y="714" type="line"/>
      <point x="131" y="714" type="line"/>
      <point x="94" y="560" type="line"/>
      <point x="105" y="560" type="line"/>
      <point x="117" y="610" type="line" smooth="yes"/>
      <point x="133" y="678"/>
      <point x="166" y="704"/>
      <point x="232" y="704" type="curve" smooth="yes"/>
      <point x="277" y="704" type="line"/>
      <point x="131" y="10" type="line"/>
      <point x="80" y="10" type="line" smooth="yes"/>
      <point x="17" y="10"/>
      <point x="7" y="23"/>
      <point x="7" y="70" type="curve" smooth="yes"/>
      <point x="7" y="86"/>
      <point x="12" y="120"/>
      <point x="18" y="154" type="curve"/>
      <point x="6" y="154" type="line"/>
    </contour>
  </outline>
</glyph>
<glyph name="uniA7FF" format="2">
  <advance width="831"/>
  <unicode hex="A7FF"/>
  <outline>
    <contour>
      <point x="88" y="-11" type="curve" smooth="yes"/>
      <point x="109" y="-11"/>
      <point x="125" y="2"/>
      <point x="126" y="36" type="curve"/>
      <point x="92" y="36"/>
      <point x="71" y="50"/>
      <point x="71" y="109" type="curve" smooth="yes"/>
      <point x="71" y="224"/>
      <point x="141" y="361"/>
      <point x="265" y="506" type="curve"/>
      <point x="269" y="506" type="line"/>
      <point x="254" y="-9" type="line"/>
      <point x="324" y="-1" type="line"/>
      <point x="390" y="132"/>
      <point x="474" y="349"/>
      <point x="526" y="477" type="curve"/>
      <point x="526" y="401"/>
      <point x="522" y="111"/>
      <point x="518" y="-12" type="curve"/>
      <point x="581" y="-2" type="line"/>
      <point x="730" y="185"/>
      <point x="812" y="347"/>
      <point x="812" y="469" type="curve" smooth="yes"/>
      <point x="812" y="519"/>
      <point x="798" y="546"/>
      <point x="771" y="546" type="curve" smooth="yes"/>
      <point x="752" y="546"/>
      <point x="736" y="535"/>
      <point x="735" y="502" type="curve"/>
      <point x="774" y="502"/>
      <point x="787" y="483"/>
      <point x="787" y="436" type="curve" smooth="yes"/>
      <point x="787" y="322"/>
      <point x="723" y="200"/>
      <point x="596" y="28" type="curve"/>
      <point x="592" y="28" type="line"/>
      <point x="594" y="112"/>
      <point x="594" y="431"/>
      <point x="592" y="531" type="curve"/>
      <point x="532" y="527" type="line"/>
      <point x="482" y="394"/>
      <point x="384" y="146"/>
      <point x="333" y="38" type="curve"/>
      <point x="329" y="38" type="line"/>
      <point x="335" y="206"/>
      <point x="340" y="374"/>
      <point x="346" y="542" type="curve"/>
      <point x="279" y="534" type="line"/>
      <point x="140" y="380"/>
      <point x="45" y="209"/>
      <point x="45" y="71" type="curve" smooth="yes"/>
      <point x="45" y="19"/>
      <point x="60" y="-11"/>
    </contour>
  </outline>
</glyph>
<glyph name="f_f_i" format="2">
  <advance width="704"/>
  <unicode hex="FB03"/>
  <anchor x="136" y="-240" name="bottom"/>
  <anchor x="-50" y="-240" name="bottom_1"/>
  <anchor x="193" y="-240" name="bottom_2"/>
  <anchor x="560" y="-10" name="bottom_3"/>
  <anchor x="175" y="0" name="caret_1"/>
  <anchor x="412" y="0" name="caret_2"/>
  <anchor x="458" y="770" name="top"/>
  <anchor x="299" y="770" name="top_1"/>
  <anchor x="529" y="770" name="top_2"/>
  <anchor x="625" y="548" name="top_3"/>
  <outline>
    <contour>
      <point x="-93" y="-240" type="curve" smooth="yes"/>
      <point x="-15" y="-240"/>
      <point x="59" y="-199"/>
      <point x="99" y="-11" type="curve" smooth="yes"/>
      <point x="212" y="526" type="line"/>
      <point x="353" y="526" type="line"/>
      <point x="234" y="-48" type="line" smooth="yes"/>
      <point x="204" y="-192"/>
      <point x="180" y="-230"/>
      <point x="129" y="-230" type="curve" smooth="yes"/>
      <point x="117" y="-230"/>
      <point x="100" y="-226"/>
      <point x="92" y="-223" type="curve"/>
      <point x="89" y="-232" type="line"/>
      <point x="100" y="-236"/>
      <point x="120" y="-240"/>
      <point x="138" y="-240" type="curve" smooth="yes"/>
      <point x="215" y="-240"/>
      <point x="289" y="-199"/>
      <point x="329" y="-11" type="curve" smooth="yes"/>
      <point x="442" y="526" type="line"/>
      <point x="578" y="526" type="line"/>
      <point x="509" y="195" type="line" smooth="yes"/>
      <point x="498" y="141"/>
      <point x="493" y="108"/>
      <point x="493" y="79" type="curve" smooth="yes"/>
      <point x="493" y="17"/>
      <point x="527" y="-9"/>
      <point x="578" y="-9" type="curve" smooth="yes"/>
      <point x="624" y="-9"/>
      <point x="654" y="13"/>
      <point x="680" y="45" type="curve"/>
      <point x="673" y="53" type="line"/>
      <point x="656" y="32"/>
      <point x="629" y="8"/>
      <point x="606" y="8" type="curve" smooth="yes"/>
      <point x="587" y="8"/>
      <point x="576" y="23"/>
      <point x="576" y="54" type="curve" smooth="yes"/>
      <point x="576" y="88"/>
      <point x="581" y="121"/>
      <point x="591" y="167" type="curve" smooth="yes"/>
      <point x="670" y="536" type="line"/>
      <point x="444" y="536" type="line"/>
      <point x="463" y="623" type="line" smooth="yes"/>
      <point x="483" y="717"/>
      <point x="507" y="760"/>
      <point x="556" y="760" type="curve" smooth="yes"/>
      <point x="606" y="760"/>
      <point x="618" y="725"/>
      <point x="618" y="632" type="curve"/>
      <point x="663" y="632"/>
      <point x="683" y="651"/>
      <point x="683" y="680" type="curve" smooth="yes"/>
      <point x="683" y="731"/>
      <point x="646" y="770"/>
      <point x="543" y="770" type="curve" smooth="yes"/>
      <point x="441" y="770"/>
      <point x="394" y="706"/>
      <point x="367" y="586" type="curve" smooth="yes"/>
      <point x="356" y="536" type="line"/>
      <point x="214" y="536" type="line"/>
      <point x="229" y="606" type="line" smooth="yes"/>
      <point x="249" y="698"/>
      <point x="267" y="742"/>
      <point x="314" y="742" type="curve" smooth="yes"/>
      <point x="354" y="742"/>
      <point x="361" y="703"/>
      <point x="361" y="613" type="curve"/>
      <point x="406" y="613"/>
      <point x="426" y="632"/>
      <point x="426" y="662" type="curve" smooth="yes"/>
      <point x="426" y="712"/>
      <point x="389" y="752"/>
      <point x="310" y="752" type="curve" smooth="yes"/>
      <point x="209" y="752"/>
      <point x="163" y="687"/>
      <point x="133" y="567" type="curve" smooth="yes"/>
      <point x="125" y="536" type="line"/>
      <point x="50" y="531" type="line"/>
      <point x="50" y="526" type="line"/>
      <point x="123" y="526" type="line"/>
      <point x="4" y="-48" type="line" smooth="yes"/>
      <point x="-26" y="-192"/>
      <point x="-50" y="-230"/>
      <point x="-101" y="-230" type="curve" smooth="yes"/>
      <point x="-113" y="-230"/>
      <point x="-130" y="-226"/>
      <point x="-139" y="-223" type="curve"/>
      <point x="-142" y="-232" type="line"/>
      <point x="-131" y="-236"/>
      <point x="-110" y="-240"/>
    </contour>
  </outline>
</glyph>
<glyph name="f_f_l" format="2">
  <advance width="717"/>
  <unicode hex="FB04"/>
  <anchor x="136" y="-240" name="bottom"/>
  <anchor x="-53" y="-240" name="bottom_1"/>
  <anchor x="199" y="-240" name="bottom_2"/>
  <anchor x="560" y="-10" name="bottom_3"/>
  <anchor x="177" y="0" name="caret_1"/>
  <anchor x="413" y="0" name="caret_2"/>
  <anchor x="443" y="770" name="top"/>
  <anchor x="296" y="770" name="top_1"/>
  <anchor x="528" y="770" name="top_2"/>
  <anchor x="667" y="770" name="top_3"/>
  <outline>
    <contour>
      <point x="-94" y="-240" type="curve" smooth="yes"/>
      <point x="-16" y="-240"/>
      <point x="58" y="-199"/>
      <point x="98" y="-11" type="curve" smooth="yes"/>
      <point x="211" y="526" type="line"/>
      <point x="352" y="526" type="line"/>
      <point x="233" y="-48" type="line" smooth="yes"/>
      <point x="203" y="-192"/>
      <point x="179" y="-230"/>
      <point x="128" y="-230" type="curve" smooth="yes"/>
      <point x="116" y="-230"/>
      <point x="99" y="-226"/>
      <point x="90" y="-223" type="curve"/>
      <point x="87" y="-232" type="line"/>
      <point x="98" y="-236"/>
      <point x="119" y="-240"/>
      <point x="137" y="-240" type="curve" smooth="yes"/>
      <point x="214" y="-240"/>
      <point x="288" y="-199"/>
      <point x="328" y="-11" type="curve" smooth="yes"/>
      <point x="441" y="526" type="line"/>
      <point x="527" y="526" type="line"/>
      <point x="529" y="536" type="line"/>
      <point x="443" y="536" type="line"/>
      <point x="462" y="623" type="line" smooth="yes"/>
      <point x="482" y="716"/>
      <point x="500" y="760"/>
      <point x="547" y="760" type="curve" smooth="yes"/>
      <point x="589" y="760"/>
      <point x="604" y="727"/>
      <point x="606" y="672" type="curve"/>
      <point x="507" y="195" type="line" smooth="yes"/>
      <point x="496" y="141"/>
      <point x="491" y="108"/>
      <point x="491" y="79" type="curve" smooth="yes"/>
      <point x="491" y="17"/>
      <point x="525" y="-9"/>
      <point x="576" y="-9" type="curve" smooth="yes"/>
      <point x="622" y="-9"/>
      <point x="652" y="13"/>
      <point x="678" y="45" type="curve"/>
      <point x="671" y="53" type="line"/>
      <point x="654" y="32"/>
      <point x="627" y="8"/>
      <point x="604" y="8" type="curve" smooth="yes"/>
      <point x="585" y="8"/>
      <point x="574" y="23"/>
      <point x="574" y="54" type="curve" smooth="yes"/>
      <point x="574" y="88"/>
      <point x="579" y="121"/>
      <point x="589" y="167" type="curve" smooth="yes"/>
      <point x="716" y="760" type="line"/>
      <point x="691" y="760" type="line"/>
      <point x="630" y="743" type="line"/>
      <point x="612" y="759"/>
      <point x="583" y="770"/>
      <point x="542" y="770" type="curve" smooth="yes"/>
      <point x="440" y="770"/>
      <point x="393" y="706"/>
      <point x="366" y="586" type="curve" smooth="yes"/>
      <point x="355" y="536" type="line"/>
      <point x="213" y="536" type="line"/>
      <point x="228" y="606" type="line" smooth="yes"/>
      <point x="248" y="698"/>
      <point x="265" y="742"/>
      <point x="312" y="742" type="curve" smooth="yes"/>
      <point x="352" y="742"/>
      <point x="360" y="703"/>
      <point x="360" y="613" type="curve"/>
      <point x="405" y="613"/>
      <point x="425" y="632"/>
      <point x="425" y="662" type="curve" smooth="yes"/>
      <point x="425" y="712"/>
      <point x="388" y="752"/>
      <point x="309" y="752" type="curve" smooth="yes"/>
      <point x="208" y="752"/>
      <point x="162" y="687"/>
      <point x="132" y="567" type="curve" smooth="yes"/>
      <point x="124" y="536" type="line"/>
      <point x="49" y="531" type="line"/>
      <point x="49" y="526" type="line"/>
      <point x="122" y="526" type="line"/>
      <point x="2" y="-48" type="line" smooth="yes"/>
      <point x="-28" y="-192"/>
      <point x="-52" y="-230"/>
      <point x="-102" y="-230" type="curve" smooth="yes"/>
      <point x="-115" y="-230"/>
      <point x="-131" y="-226"/>
      <point x="-140" y="-223" type="curve"/>
      <point x="-143" y="-232" type="line"/>
      <point x="-132" y="-236"/>
      <point x="-111" y="-240"/>
    </contour>
  </outline>
</glyph>
<glyph name=".notdef" format="2">
  <advance width="607"/>
  <outline>
    <contour>
      <point x="97" y="0" type="line"/>
      <point x="509" y="0" type="line"/>
      <point x="509" y="714" type="line"/>
      <point x="97" y="714" type="line"/>
    </contour>
    <contour>
      <point x="149" y="51" type="line"/>
      <point x="149" y="663" type="line"/>
      <point x="458" y="663" type="line"/>
      <point x="458" y="51" type="line"/>
    </contour>
  </outline>
</glyph>
<glyph name="braceleft.sc" format="2">
  <advance width="274"/>
  <outline>
    <contour>
      <point x="128" y="-102" type="curve" smooth="yes"/>
      <point x="182" y="-102" type="line"/>
      <point x="184" y="-92" type="line"/>
      <point x="157" y="-92" type="line" smooth="yes"/>
      <point x="133" y="-92"/>
      <point x="121" y="-79"/>
      <point x="121" y="-47" type="curve" smooth="yes"/>
      <point x="121" y="-35"/>
      <point x="125" y="-14"/>
      <point x="128" y="1" type="curve" smooth="yes"/>
      <point x="157" y="127" type="line" smooth="yes"/>
      <point x="161" y="146"/>
      <point x="164" y="163"/>
      <point x="164" y="176" type="curve" smooth="yes"/>
      <point x="164" y="228"/>
      <point x="129" y="248"/>
      <point x="62" y="251" type="curve"/>
      <point x="62" y="253" type="line"/>
      <point x="149" y="260"/>
      <point x="190" y="285"/>
      <point x="205" y="352" type="curve" smooth="yes"/>
      <point x="238" y="504" type="line" smooth="yes"/>
      <point x="255" y="583"/>
      <point x="267" y="598"/>
      <point x="309" y="598" type="curve" smooth="yes"/>
      <point x="333" y="598" type="line"/>
      <point x="335" y="608" type="line"/>
      <point x="294" y="608" type="line" smooth="yes"/>
      <point x="204" y="608"/>
      <point x="167" y="582"/>
      <point x="148" y="492" type="curve" smooth="yes"/>
      <point x="121" y="365" type="line" smooth="yes"/>
      <point x="106" y="291"/>
      <point x="78" y="260"/>
      <point x="7" y="258" type="curve"/>
      <point x="5" y="248" type="line"/>
      <point x="62" y="246"/>
      <point x="78" y="231"/>
      <point x="78" y="187" type="curve" smooth="yes"/>
      <point x="78" y="175"/>
      <point x="75" y="158"/>
      <point x="71" y="139" type="curve" smooth="yes"/>
      <point x="50" y="42" type="line" smooth="yes"/>
      <point x="43" y="10"/>
      <point x="41" y="-8"/>
      <point x="41" y="-23" type="curve" smooth="yes"/>
      <point x="41" y="-73"/>
      <point x="70" y="-102"/>
    </contour>
  </outline>
</glyph>
<glyph name="braceright.sc" format="2">
  <advance width="273"/>
  <outline>
    <contour>
      <point x="-70" y="-102" type="line"/>
      <point x="-35" y="-102" type="line" smooth="yes"/>
      <point x="60" y="-102"/>
      <point x="98" y="-75"/>
      <point x="117" y="14" type="curve" smooth="yes"/>
      <point x="144" y="142" type="line" smooth="yes"/>
      <point x="159" y="216"/>
      <point x="187" y="246"/>
      <point x="258" y="249" type="curve"/>
      <point x="260" y="259" type="line"/>
      <point x="203" y="260"/>
      <point x="187" y="275"/>
      <point x="187" y="319" type="curve" smooth="yes"/>
      <point x="187" y="332"/>
      <point x="190" y="349"/>
      <point x="194" y="367" type="curve" smooth="yes"/>
      <point x="215" y="464" type="line" smooth="yes"/>
      <point x="222" y="497"/>
      <point x="224" y="515"/>
      <point x="224" y="529" type="curve" smooth="yes"/>
      <point x="224" y="579"/>
      <point x="193" y="608"/>
      <point x="131" y="608" type="curve" smooth="yes"/>
      <point x="82" y="608" type="line"/>
      <point x="80" y="598" type="line"/>
      <point x="102" y="598" type="line" smooth="yes"/>
      <point x="130" y="598"/>
      <point x="142" y="586"/>
      <point x="142" y="554" type="curve" smooth="yes"/>
      <point x="142" y="541"/>
      <point x="140" y="520"/>
      <point x="137" y="505" type="curve" smooth="yes"/>
      <point x="108" y="379" type="line" smooth="yes"/>
      <point x="104" y="360"/>
      <point x="101" y="344"/>
      <point x="101" y="330" type="curve" smooth="yes"/>
      <point x="101" y="278"/>
      <point x="136" y="259"/>
      <point x="203" y="255" type="curve"/>
      <point x="203" y="253" type="line"/>
      <point x="116" y="247"/>
      <point x="74" y="221"/>
      <point x="60" y="154" type="curve" smooth="yes"/>
      <point x="27" y="2" type="line" smooth="yes"/>
      <point x="10" y="-76"/>
      <point x="-5" y="-92"/>
      <point x="-50" y="-92" type="curve" smooth="yes"/>
      <point x="-68" y="-92" type="line"/>
    </contour>
  </outline>
</glyph>
<glyph name="bracketright.sc" format="2">
  <advance width="209"/>
  <outline>
    <contour>
      <point x="-69" y="-102" type="line"/>
      <point x="97" y="-102" type="line"/>
      <point x="251" y="608" type="line"/>
      <point x="85" y="608" type="line"/>
      <point x="83" y="598" type="line"/>
      <point x="113" y="598" type="line" smooth="yes"/>
      <point x="144" y="598"/>
      <point x="156" y="594"/>
      <point x="156" y="571" type="curve" smooth="yes"/>
      <point x="156" y="564"/>
      <point x="152" y="549"/>
      <point x="149" y="532" type="curve" smooth="yes"/>
      <point x="27" y="-38" type="line" smooth="yes"/>
      <point x="16" y="-88"/>
      <point x="0" y="-92"/>
      <point x="-38" y="-92" type="curve" smooth="yes"/>
      <point x="-67" y="-92" type="line"/>
    </contour>
  </outline>
</glyph>
<glyph name="brevetildecomb" format="2">
  <outline>
    <contour>
      <point x="-234" y="606" type="curve" smooth="yes"/>
      <point x="-169" y="606"/>
      <point x="-131" y="650"/>
      <point x="-114" y="724" type="curve"/>
      <point x="-123" y="724" type="line"/>
      <point x="-143" y="673"/>
      <point x="-184" y="651"/>
      <point x="-229" y="651" type="curve" smooth="yes"/>
      <point x="-276" y="651"/>
      <point x="-307" y="677"/>
      <point x="-310" y="724" type="curve"/>
      <point x="-320" y="724" type="line"/>
      <point x="-319" y="645"/>
      <point x="-294" y="606"/>
    </contour>
    <contour>
      <point x="-320" y="774" type="curve"/>
      <point x="-311" y="774" type="line"/>
      <point x="-297" y="805"/>
      <point x="-287" y="814"/>
      <point x="-263" y="814" type="curve" smooth="yes"/>
      <point x="-219" y="814"/>
      <point x="-205" y="769"/>
      <point x="-151" y="769" type="curve" smooth="yes"/>
      <point x="-111" y="769"/>
      <point x="-93" y="793"/>
      <point x="-81" y="853" type="curve"/>
      <point x="-90" y="853" type="line"/>
      <point x="-103" y="827"/>
      <point x="-110" y="814"/>
      <point x="-142" y="814" type="curve" smooth="yes"/>
      <point x="-184" y="814"/>
      <point x="-197" y="860"/>
      <point x="-248" y="860" type="curve" smooth="yes"/>
      <point x="-285" y="860"/>
      <point x="-307" y="836"/>
    </contour>
  </outline>
</glyph>
<glyph name="caroncommaaccent" format="2">
  <advance width="391"/>
  <anchor x="131" y="536" name="_topright"/>
  <outline>
    <contour>
      <point x="180" y="600" type="line"/>
      <point x="191" y="600" type="line"/>
      <point x="224" y="638"/>
      <point x="271" y="703"/>
      <point x="300" y="749" type="curve"/>
      <point x="302" y="760" type="line"/>
      <point x="228" y="760" type="line"/>
      <point x="214" y="711"/>
      <point x="198" y="657"/>
      <point x="181" y="609" type="curve"/>
    </contour>
  </outline>
</glyph>
<glyph name="cyrillicbreve" format="2">
  <advance width="461"/>
  <outline>
    <contour>
      <point x="308" y="606" type="curve" smooth="yes"/>
      <point x="412" y="606"/>
      <point x="466" y="703"/>
      <point x="498" y="760" type="curve"/>
      <point x="487" y="766" type="line"/>
      <point x="455" y="706"/>
      <point x="405" y="624"/>
      <point x="320" y="624" type="curve" smooth="yes"/>
      <point x="280" y="624"/>
      <point x="262" y="651"/>
      <point x="262" y="693" type="curve" smooth="yes"/>
      <point x="262" y="709"/>
      <point x="265" y="729"/>
      <point x="272" y="750" type="curve"/>
      <point x="204" y="741" type="line"/>
      <point x="198" y="721"/>
      <point x="196" y="707"/>
      <point x="196" y="695" type="curve" smooth="yes"/>
      <point x="196" y="641"/>
      <point x="227" y="606"/>
    </contour>
  </outline>
</glyph>
<glyph name="dotmacron" format="2">
  <advance width="512"/>
  <outline>
    <contour>
      <point x="240" y="784" type="line"/>
      <point x="490" y="784" type="line"/>
      <point x="495" y="804" type="line"/>
      <point x="244" y="804" type="line"/>
    </contour>
    <contour>
      <point x="336" y="608" type="curve" smooth="yes"/>
      <point x="361" y="608"/>
      <point x="381" y="632"/>
      <point x="381" y="672" type="curve" smooth="yes"/>
      <point x="381" y="698"/>
      <point x="366" y="714"/>
      <point x="342" y="714" type="curve" smooth="yes"/>
      <point x="314" y="714"/>
      <point x="299" y="686"/>
      <point x="299" y="651" type="curve" smooth="yes"/>
      <point x="299" y="622"/>
      <point x="314" y="608"/>
    </contour>
  </outline>
</glyph>
<glyph name="e.sc" format="2">
  <advance width="421"/>
  <anchor x="143" y="0" name="bottom"/>
  <anchor x="265" y="571" name="top"/>
  <anchor x="455" y="571" name="topright"/>
  <outline>
    <contour>
      <point x="-34" y="0" type="line"/>
      <point x="336" y="0" type="line"/>
      <point x="371" y="139" type="line"/>
      <point x="361" y="139" type="line"/>
      <point x="349" y="97" type="line" smooth="yes"/>
      <point x="328" y="22"/>
      <point x="309" y="10"/>
      <point x="244" y="10" type="curve" smooth="yes"/>
      <point x="119" y="10" type="line"/>
      <point x="179" y="294" type="line"/>
      <point x="332" y="294" type="line"/>
      <point x="334" y="304" type="line"/>
      <point x="181" y="304" type="line"/>
      <point x="236" y="561" type="line"/>
      <point x="339" y="561" type="line" smooth="yes"/>
      <point x="393" y="561"/>
      <point x="408" y="552"/>
      <point x="408" y="508" type="curve" smooth="yes"/>
      <point x="408" y="496"/>
      <point x="406" y="477"/>
      <point x="399" y="432" type="curve"/>
      <point x="409" y="432" type="line"/>
      <point x="436" y="571" type="line"/>
      <point x="88" y="571" type="line"/>
      <point x="86" y="561" type="line"/>
      <point x="105" y="561" type="line" smooth="yes"/>
      <point x="134" y="561"/>
      <point x="140" y="556"/>
      <point x="140" y="537" type="curve" smooth="yes"/>
      <point x="140" y="527"/>
      <point x="136" y="509"/>
      <point x="131" y="485" type="curve" smooth="yes"/>
      <point x="42" y="65" type="line" smooth="yes"/>
      <point x="32" y="18"/>
      <point x="21" y="10"/>
      <point x="-16" y="10" type="curve" smooth="yes"/>
      <point x="-32" y="10" type="line"/>
    </contour>
  </outline>
</glyph>
<glyph name="f.sc" format="2">
  <advance width="388"/>
  <anchor x="79" y="0" name="bottom"/>
  <anchor x="252" y="571" name="top"/>
  <anchor x="442" y="571" name="topright"/>
  <outline>
    <contour>
      <point x="-33" y="0" type="line"/>
      <point x="185" y="0" type="line"/>
      <point x="187" y="10" type="line"/>
      <point x="165" y="10" type="line" smooth="yes"/>
      <point x="137" y="10"/>
      <point x="128" y="15"/>
      <point x="128" y="37" type="curve" smooth="yes"/>
      <point x="128" y="47"/>
      <point x="130" y="58"/>
      <point x="133" y="75" type="curve" smooth="yes"/>
      <point x="177" y="276" type="line"/>
      <point x="328" y="276" type="line"/>
      <point x="330" y="286" type="line"/>
      <point x="178" y="286" type="line"/>
      <point x="237" y="561" type="line"/>
      <point x="337" y="561" type="line" smooth="yes"/>
      <point x="391" y="561"/>
      <point x="409" y="549"/>
      <point x="409" y="507" type="curve" smooth="yes"/>
      <point x="409" y="494"/>
      <point x="404" y="464"/>
      <point x="400" y="431" type="curve"/>
      <point x="410" y="431" type="line"/>
      <point x="435" y="571" type="line"/>
      <point x="88" y="571" type="line"/>
      <point x="86" y="561" type="line"/>
      <point x="102" y="561" type="line" smooth="yes"/>
      <point x="133" y="561"/>
      <point x="142" y="555"/>
      <point x="142" y="535" type="curve" smooth="yes"/>
      <point x="142" y="527"/>
      <point x="138" y="510"/>
      <point x="134" y="489" type="curve" smooth="yes"/>
      <point x="44" y="71" type="line" smooth="yes"/>
      <point x="33" y="19"/>
      <point x="23" y="10"/>
      <point x="-14" y="10" type="curve" smooth="yes"/>
      <point x="-32" y="10" type="line"/>
    </contour>
  </outline>
</glyph>
<glyph name="f_f_l.ss02" format="2">
  <advance width="709"/>
  <anchor x="301" y="0" name="bottom"/>
  <anchor x="71" y="0" name="bottom_1"/>
  <anchor x="298" y="0" name="bottom_2"/>
  <anchor x="560" y="-10" name="bottom_3"/>
  <anchor x="231" y="0" name="caret_1"/>
  <anchor x="467" y="0" name="caret_2"/>
  <anchor x="456" y="770" name="top"/>
  <anchor x="315" y="770" name="top_1"/>
  <anchor x="534" y="770" name="top_2"/>
  <anchor x="681" y="770" name="top_3"/>
  <outline>
    <contour>
      <point x="25" y="0" type="line"/>
      <point x="113" y="0" type="line"/>
      <point x="224" y="526" type="line"/>
      <point x="385" y="526" type="line"/>
      <point x="388" y="536" type="line"/>
      <point x="226" y="536" type="line"/>
      <point x="241" y="606" type="line" smooth="yes"/>
      <point x="261" y="698"/>
      <point x="278" y="742"/>
      <point x="325" y="742" type="curve" smooth="yes"/>
      <point x="365" y="742"/>
      <point x="373" y="703"/>
      <point x="373" y="613" type="curve"/>
      <point x="418" y="613"/>
      <point x="438" y="632"/>
      <point x="438" y="662" type="curve" smooth="yes"/>
      <point x="438" y="712"/>
      <point x="401" y="752"/>
      <point x="322" y="752" type="curve" smooth="yes"/>
      <point x="221" y="752"/>
      <point x="175" y="687"/>
      <point x="145" y="567" type="curve" smooth="yes"/>
      <point x="137" y="536" type="line"/>
      <point x="62" y="531" type="line"/>
      <point x="62" y="526" type="line"/>
      <point x="135" y="526" type="line"/>
    </contour>
    <component base="f_l.ss02" xOffset="231"/>
  </outline>
</glyph>
<glyph name="four.osf" format="2">
  <advance width="449"/>
  <outline>
    <contour>
      <point x="165" y="-168" type="line"/>
      <point x="251" y="-168" type="line"/>
      <point x="292" y="26" type="line"/>
      <point x="387" y="26" type="line"/>
      <point x="397" y="72" type="line"/>
      <point x="301" y="72" type="line"/>
      <point x="400" y="546" type="line"/>
      <point x="319" y="546" type="line"/>
      <point x="-30" y="66" type="line"/>
      <point x="-41" y="26" type="line"/>
      <point x="207" y="26" type="line"/>
    </contour>
    <contour>
      <point x="-12" y="72" type="line"/>
      <point x="248" y="429" type="line" smooth="yes"/>
      <point x="273" y="463"/>
      <point x="297" y="497"/>
      <point x="320" y="532" type="curve"/>
      <point x="302" y="470"/>
      <point x="287" y="399"/>
      <point x="275" y="341" type="curve" smooth="yes"/>
      <point x="217" y="72" type="line"/>
    </contour>
  </outline>
</glyph>
<glyph name="hbar.sc" format="2">
  <advance width="542"/>
  <anchor x="237" y="0" name="bottom"/>
  <anchor x="360" y="571" name="top"/>
  <anchor x="273" y="286" name="center"/>
  <anchor x="589" y="571" name="topright"/>
  <outline>
    <contour>
      <point x="41" y="414" type="line"/>
      <point x="561" y="414" type="line"/>
      <point x="563" y="424" type="line"/>
      <point x="43" y="424" type="line"/>
    </contour>
    <component base="h.sc"/>
  </outline>
</glyph>
<glyph name="oe.sc" format="2">
  <advance width="671"/>
  <anchor x="270" y="0" name="bottom"/>
  <anchor x="392" y="571" name="top"/>
  <outline>
    <contour>
      <point x="200" y="-8" type="curve" smooth="yes"/>
      <point x="235" y="-8"/>
      <point x="259" y="-2"/>
      <point x="287" y="0" type="curve"/>
      <point x="585" y="0" type="line"/>
      <point x="620" y="139" type="line"/>
      <point x="610" y="139" type="line"/>
      <point x="598" y="97" type="line" smooth="yes"/>
      <point x="578" y="22"/>
      <point x="558" y="10"/>
      <point x="493" y="10" type="curve" smooth="yes"/>
      <point x="368" y="10" type="line"/>
      <point x="428" y="294" type="line"/>
      <point x="581" y="294" type="line"/>
      <point x="583" y="304" type="line"/>
      <point x="430" y="304" type="line"/>
      <point x="485" y="561" type="line"/>
      <point x="588" y="561" type="line" smooth="yes"/>
      <point x="642" y="561"/>
      <point x="657" y="552"/>
      <point x="657" y="508" type="curve" smooth="yes"/>
      <point x="657" y="496"/>
      <point x="655" y="477"/>
      <point x="648" y="432" type="curve"/>
      <point x="658" y="432" type="line"/>
      <point x="685" y="571" type="line"/>
      <point x="378" y="571" type="line"/>
      <point x="359" y="578"/>
      <point x="338" y="580"/>
      <point x="316" y="580" type="curve" smooth="yes"/>
      <point x="152" y="580"/>
      <point x="44" y="371"/>
      <point x="44" y="189" type="curve" smooth="yes"/>
      <point x="44" y="59"/>
      <point x="108" y="-8"/>
    </contour>
    <contour>
      <point x="214" y="3" type="curve" smooth="yes"/>
      <point x="164" y="3"/>
      <point x="129" y="48"/>
      <point x="129" y="148" type="curve" smooth="yes"/>
      <point x="129" y="300"/>
      <point x="205" y="570"/>
      <point x="327" y="570" type="curve" smooth="yes"/>
      <point x="357" y="570"/>
      <point x="373" y="562"/>
      <point x="392" y="545" type="curve"/>
      <point x="283" y="16" type="line"/>
      <point x="256" y="7"/>
      <point x="240" y="3"/>
    </contour>
  </outline>
</glyph>
<glyph name="question.sc" format="2">
  <advance width="356"/>
  <outline>
    <contour>
      <point x="129" y="172" type="line"/>
      <point x="141" y="172" type="line"/>
      <point x="182" y="263" type="line"/>
      <point x="285" y="299"/>
      <point x="355" y="358"/>
      <point x="355" y="455" type="curve" smooth="yes"/>
      <point x="355" y="534"/>
      <point x="304" y="579"/>
      <point x="223" y="579" type="curve" smooth="yes"/>
      <point x="130" y="579"/>
      <point x="76" y="527"/>
      <point x="76" y="468" type="curve" smooth="yes"/>
      <point x="76" y="439"/>
      <point x="98" y="424"/>
      <point x="143" y="424" type="curve"/>
      <point x="153" y="525"/>
      <point x="175" y="569"/>
      <point x="222" y="569" type="curve" smooth="yes"/>
      <point x="255" y="569"/>
      <point x="276" y="540"/>
      <point x="276" y="477" type="curve" smooth="yes"/>
      <point x="276" y="378"/>
      <point x="225" y="310"/>
      <point x="128" y="277" type="curve"/>
    </contour>
    <contour>
      <point x="116" y="-6" type="curve" smooth="yes"/>
      <point x="141" y="-6"/>
      <point x="169" y="11"/>
      <point x="169" y="57" type="curve" smooth="yes"/>
      <point x="169" y="89"/>
      <point x="149" y="105"/>
      <point x="121" y="105" type="curve" smooth="yes"/>
      <point x="88" y="105"/>
      <point x="67" y="80"/>
      <point x="67" y="42" type="curve" smooth="yes"/>
      <point x="67" y="9"/>
      <point x="87" y="-6"/>
    </contour>
  </outline>
</glyph>
